<?xml version="1.0" encoding="UTF-8" standalone="no"?><svg xmlns="http://www.w3.org/2000/svg" xmlns:xlink="http://www.w3.org/1999/xlink" contentScriptType="application/ecmascript" contentStyleType="text/css" height="987px" preserveAspectRatio="none" style="width:783px;height:987px;background:#EEEBDC;" version="1.1" viewBox="0 0 783 987" width="783px" zoomAndPan="magnify"><defs><filter height="300%" id="fz26ku8s4a0ms" width="300%" x="-1" y="-1"><feGaussianBlur result="blurOut" stdDeviation="2.0"/><feColorMatrix in="blurOut" result="blurOut2" type="matrix" values="0 0 0 0 0 0 0 0 0 0 0 0 0 0 0 0 0 0 .4 0"/><feOffset dx="4.0" dy="4.0" in="blurOut2" result="blurOut3"/><feBlend in="SourceGraphic" in2="blurOut3" mode="normal"/></filter></defs><g><polygon fill="#DDDDDD" points="616,4,616,4.2102,625.75,3.5857,635.5,4.1933,645.25,4.3997,655,3.2866,664.75,3.9223,674.5,3.5735,684.25,3.6165,694,3.9318,703.75,3.3086,713.5,4.5536,723.25,3.3697,733,3.8022,742.75,4.4319,752.5,3.9142,762.25,4.0682,772,4,771.9681,4,772.1785,14.0238,772.2391,24.0477,772.5857,34.0715,772.6711,44.0954,772.6793,54.1192,772.2546,64.143,772.4636,74.1669,772.7022,84.1907,771.2788,94.2146,772.6785,104.2384,771.7035,114.2622,772.5338,124.2861,771.505,134.3099,771.9315,144.3338,772.7416,154.3576,771.9513,164.3814,772.1053,174.4053,772.3386,184.4291,772.4162,194.453,771.9961,204.4768,772.2872,214.5006,771.4276,224.5245,772.2844,234.5483,772.5482,244.5722,772.4445,254.596,772.613,264.6198,771.5169,274.6437,771.3478,284.6675,771.3786,294.6914,771.9411,304.7152,771.8035,314.739,772.6814,324.7629,771.8253,334.7867,771.6569,344.8106,772.2283,354.8344,771.3332,364.8582,771.4809,374.8821,772.649,384.9059,772.4357,394.9298,772.7345,404.9536,771.6782,414.9774,772.3192,425.0013,772.5904,435.0251,771.5276,445.049,771.9041,455.0728,772.126,465.0966,772.6518,475.1205,771.9958,485.1443,772.4626,495.1682,771.4462,505.192,771.3227,515.2159,772.5036,525.2397,771.2831,535.2635,772.509,545.2874,772.2066,555.3112,771.7321,565.3351,771.6462,575.3589,772.4588,585.3827,771.7007,595.4066,772.5919,605.4304,771.4473,615.4543,772.6174,625.4781,772.4843,635.5019,772.245,645.5258,772.0472,655.5496,772.7266,665.5735,772.6136,675.5973,772.1693,685.6211,772.2682,695.645,771.8697,705.6688,772.7165,715.6927,772.1549,725.7165,772.1726,735.7403,771.3916,745.7642,771.5948,755.788,772.5307,765.8119,772.4298,775.8357,771.9571,785.8595,771.6778,795.8834,771.7811,805.9072,771.3138,815.9311,772.4147,825.9549,772.7396,835.9787,772.5264,846.0026,772.6949,856.0264,771.8633,866.0503,772.0872,876.0741,771.6124,886.0979,772.284,896.1218,772.2468,906.1456,772.5524,916.1695,771.7703,926.1933,771.8656,936.2171,772.4435,946.241,772.5673,956.2648,771.4875,966.2887,772,976.3125,772,976.1186,762.25,976.4618,752.5,975.7017,742.75,976.6659,733,976.5705,723.25,976.2117,713.5,976.4547,703.75,977.0412,694,975.9996,684.25,976.6275,674.5,976.5981,664.75,976.4283,655,976.4534,645.25,976.426,635.5,975.6883,625.75,975.9117,616,976.3125,615.5385,976.3125,616.0638,966.2887,616.0881,956.2648,616.1617,946.241,615.709,936.2171,615.9325,926.1933,615.8798,916.1695,616.5769,906.1456,616.4266,896.1218,615.5145,886.0979,615.9271,876.0741,615.4228,866.0503,616.2884,856.0264,616.6085,846.0026,616.5446,835.9787,615.5644,825.9549,616.464,815.9311,615.2572,805.9072,616.2002,795.8834,615.7007,785.8595,616.0967,775.8357,616.2403,765.8119,616.4721,755.788,615.2801,745.7642,616.4755,735.7403,616.1782,725.7165,616.3553,715.6927,616.7478,705.6688,616.0055,695.645,616.1753,685.6211,616.2134,675.5973,616.1972,665.5735,615.9992,655.5496,616.7107,645.5258,615.3903,635.5019,616.5653,625.4781,615.376,615.4543,615.4597,605.4304,616.04,595.4066,616.0283,585.3827,615.5072,575.3589,616.4137,565.3351,616.1089,555.3112,616.7267,545.2874,616.6671,535.2635,615.5517,525.2397,615.6021,515.2159,615.8708,505.192,616.3555,495.1682,616.403,485.1443,616.3012,475.1205,615.658,465.0966,616.6364,455.0728,616.6338,445.049,615.9527,435.0251,615.7609,425.0013,615.5986,414.9774,615.7854,404.9536,616.1374,394.9298,615.9316,384.9059,615.5822,374.8821,616.4874,364.8582,615.5411,354.8344,616.5024,344.8106,616.4272,334.7867,616.3719,324.7629,616.6925,314.739,615.7541,304.7152,615.6994,294.6914,616.5189,284.6675,615.4031,274.6437,615.766,264.6198,616.1155,254.596,616.0687,244.5722,615.6415,234.5483,615.957,224.5245,616.7446,214.5006,616.6485,204.4768,615.4037,194.453,616.0785,184.4291,615.4861,174.4053,615.9737,164.3814,616.293,154.3576,616.4199,144.3338,615.3353,134.3099,616.4005,124.2861,616.0084,114.2622,615.4447,104.2384,615.5289,94.2146,616.3266,84.1907,616.2499,74.1669,615.9836,64.143,615.3279,54.1192,616.6581,44.0954,615.6882,34.0715,615.4719,24.0477,615.9327,14.0238,616,4" style="stroke: #A80036; stroke-width: 1.0;"/><text fill="#000000" font-family="sans-serif" font-size="13" font-weight="bold" lengthAdjust="spacingAndGlyphs" textLength="109" x="639.5" y="16.5684">multiprocessing</text><polygon fill="#A9DCDF" filter="url(#fz26ku8s4a0ms)" points="121,144.0918,121,144.1619,123,143.9537,125,144.1562,127,144.225,129,143.854,131,144.0918,130.9223,144.0918,130.5735,154.1111,130.6165,164.1304,130.9318,174.1497,130.3086,184.169,131.5536,194.1882,130.3697,204.2075,130.8022,214.2268,131.4319,224.2461,130.9142,234.2654,131.0682,244.2847,130.9681,254.304,131.1785,264.3233,131.2391,274.3426,131.5857,284.3619,131.6711,294.3812,131.6793,304.4004,131.2546,314.4197,131.4636,324.439,131.7022,334.4583,130.2788,344.4776,131.6785,354.4969,130.7035,364.5162,131.5338,374.5355,130.505,384.5548,130.9315,394.5741,131.7416,404.5933,130.9513,414.6126,131.1053,424.6319,131.3386,434.6512,131.4162,444.6705,130.9961,454.6898,131.2872,464.7091,130.4276,474.7284,131.2844,484.7477,131.5482,494.767,131.4445,504.7862,131.613,514.8055,130.5169,524.8248,130.3478,534.8441,130.3786,544.8634,130.9411,554.8827,130.8035,564.902,131.6814,574.9213,130.8253,584.9406,130.6569,594.9599,131.2283,604.9791,130.3332,614.9984,130.4809,625.0177,131.649,635.037,131.4357,645.0563,131.7345,655.0756,130.6782,665.0949,131.3192,675.1142,131.5904,685.1335,130.5276,695.1528,130.9041,705.1721,131.126,715.1913,131.6518,725.2106,130.9958,735.2299,131.4626,745.2492,130.4462,755.2685,130.3227,765.2878,131.5036,775.3071,130.2831,785.3264,131.509,795.3457,131.2066,805.365,130.7321,815.3842,130.6462,825.4035,131.4588,835.4228,130.7007,845.4421,131.5919,855.4614,130.4473,865.4807,131.6174,875.5,131.4843,885.5193,131.245,895.5386,131.0472,905.5579,131,915.5771,131,915.8194,129,915.7817,127,915.6336,125,915.6665,123,915.5337,121,915.5771,121.7165,915.5771,121.1549,905.5579,121.1726,895.5386,120.3916,885.5193,120.5948,875.5,121.5307,865.4807,121.4298,855.4614,120.9571,845.4421,120.6778,835.4228,120.7811,825.4035,120.3138,815.3842,121.4147,805.365,121.7396,795.3457,121.5264,785.3264,121.6949,775.3071,120.8633,765.2878,121.0872,755.2685,120.6124,745.2492,121.284,735.2299,121.2468,725.2106,121.5524,715.1913,120.7703,705.1721,120.8656,695.1528,121.4435,685.1335,121.5673,675.1142,120.4875,665.0949,120.8061,655.0756,121.1493,645.0563,120.3892,635.037,121.3534,625.0177,121.258,614.9984,120.8992,604.9791,121.1422,594.9599,121.7287,584.9406,120.6871,574.9213,121.315,564.902,121.2856,554.8827,121.1158,544.8634,121.1409,534.8441,121.1135,524.8248,120.3758,514.8055,120.5992,504.7862,120.5385,494.767,121.0638,484.7477,121.0881,474.7284,121.1617,464.7091,120.709,454.6898,120.9325,444.6705,120.8798,434.6512,121.5769,424.6319,121.4266,414.6126,120.5145,404.5933,120.9271,394.5741,120.4228,384.5548,121.2884,374.5355,121.6085,364.5162,121.5446,354.4969,120.5644,344.4776,121.464,334.4583,120.2572,324.439,121.2002,314.4197,120.7007,304.4004,121.0967,294.3812,121.2403,284.3619,121.4721,274.3426,120.2801,264.3233,121.4755,254.304,121.1782,244.2847,121.3553,234.2654,121.7478,224.2461,121.0055,214.2268,121.1753,204.2075,121.2134,194.1882,121.1972,184.169,120.9992,174.1497,121.7107,164.1304,120.3903,154.1111,121,144.0918" style="stroke: #0000FF; stroke-width: 1.0;"/><polygon fill="#A9DCDF" filter="url(#fz26ku8s4a0ms)" points="343,104.3564,343,104.4265,345,104.2183,347,104.4209,349,104.4897,351,104.1186,353,104.3564,352.9223,104.3564,352.5735,114.3715,352.6165,124.3866,352.9318,134.4017,352.3086,144.4167,353.5536,154.4318,352.3697,164.4469,352.8022,174.4619,353.4319,184.477,352.9142,194.4921,353.0682,204.5071,352.9681,214.5222,353.1785,224.5373,353.2391,234.5524,353.5857,244.5674,353.6711,254.5825,353.6793,264.5976,353.2546,274.6126,353.4636,284.6277,353.7022,294.6428,352.2788,304.6579,353.6785,314.6729,352.7035,324.688,353.5338,334.7031,352.505,344.7181,352.9315,354.7332,353.7416,364.7483,352.9513,374.7633,353.1053,384.7784,353.3386,394.7935,353.4162,404.8086,352.9961,414.8236,353.2872,424.8387,352.4276,434.8538,353.2844,444.8688,353.5482,454.8839,353.4445,464.899,353.613,474.9141,352.5169,484.9291,352.3478,494.9442,352.3786,504.9593,352.9411,514.9743,352.8035,524.9894,353.6814,535.0045,352.8253,545.0195,352.6569,555.0346,353.2283,565.0497,352.3332,575.0648,352.4809,585.0798,353.649,595.0949,353.4357,605.11,353.7345,615.125,352.6782,625.1401,353.3192,635.1552,353.5904,645.1702,352.5276,655.1853,352.9041,665.2004,353.126,675.2155,353.6518,685.2305,352.9958,695.2456,353.4626,705.2607,352.4462,715.2757,352.3227,725.2908,353.5036,735.3059,352.2831,745.321,353.509,755.336,353.2066,765.3511,352.7321,775.3662,352.6462,785.3812,353.4588,795.3963,352.7007,805.4114,353.5919,815.4264,352.4473,825.4415,353.6174,835.4566,353.4843,845.4717,353.245,855.4867,353.0472,865.5018,353.7266,875.5169,353.6136,885.5319,353.1693,895.547,353.2682,905.5621,353,915.5771,353,915.5337,351,915.816,349,915.6288,347,915.6347,345,915.3744,343,915.5771,342.5948,915.5771,343.5307,905.5621,343.4298,895.547,342.9571,885.5319,342.6778,875.5169,342.7811,865.5018,342.3138,855.4867,343.4147,845.4717,343.7396,835.4566,343.5264,825.4415,343.6949,815.4264,342.8633,805.4114,343.0872,795.3963,342.6124,785.3812,343.284,775.3662,343.2468,765.3511,343.5524,755.336,342.7703,745.321,342.8656,735.3059,343.4435,725.2908,343.5673,715.2757,342.4875,705.2607,342.8061,695.2456,343.1493,685.2305,342.3892,675.2155,343.3534,665.2004,343.258,655.1853,342.8992,645.1702,343.1422,635.1552,343.7287,625.1401,342.6871,615.125,343.315,605.11,343.2856,595.0949,343.1158,585.0798,343.1409,575.0648,343.1135,565.0497,342.3758,555.0346,342.5992,545.0195,342.5385,535.0045,343.0638,524.9894,343.0881,514.9743,343.1617,504.9593,342.709,494.9442,342.9325,484.9291,342.8798,474.9141,343.5769,464.899,343.4266,454.8839,342.5145,444.8688,342.9271,434.8538,342.4228,424.8387,343.2884,414.8236,343.6085,404.8086,343.5446,394.7935,342.5644,384.7784,343.464,374.7633,342.2572,364.7483,343.2002,354.7332,342.7007,344.7181,343.0967,334.7031,343.2403,324.688,343.4721,314.6729,342.2801,304.6579,343.4755,294.6428,343.1782,284.6277,343.3553,274.6126,343.7478,264.5976,343.0055,254.5825,343.1753,244.5674,343.2134,234.5524,343.1972,224.5373,342.9992,214.5222,343.7107,204.5071,342.3903,194.4921,343.5653,184.477,342.376,174.4619,342.4597,164.4469,343.04,154.4318,343.0283,144.4167,342.5072,134.4017,343.4137,124.3866,343.1089,114.3715,343,104.3564" style="stroke: #0000FF; stroke-width: 1.0;"/><polygon fill="#A9DCDF" filter="url(#fz26ku8s4a0ms)" points="348,391.4941,348,391.5642,350,391.356,352,391.5586,354,391.6274,356,391.2563,358,391.4941,357.9223,391.4941,357.5735,401.3275,357.6165,411.1609,357.9318,420.9942,357.3086,430.8276,358.5536,440.6609,357.3697,450.4943,357.8022,460.3276,358.4319,470.161,357.9142,479.9943,358.0682,489.8277,357.9681,499.6611,358.1785,509.4944,358.2391,519.3278,358,529.1611,358,529.3564,356,529.3848,354,529.3876,352,529.246,350,529.3157,348,529.1611,348.7022,529.1611,347.2788,519.3278,348.6785,509.4944,347.7035,499.6611,348.5338,489.8277,347.505,479.9943,347.9315,470.161,348.7416,460.3276,347.9513,450.4943,348.1053,440.6609,348.3386,430.8276,348.4162,420.9942,347.9961,411.1609,348.2872,401.3275,348,391.4941" style="stroke: #0000FF; stroke-width: 1.0;"/><polygon fill="#A9DCDF" filter="url(#fz26ku8s4a0ms)" points="646.5,212.7129,646.5,212.783,648.5,212.5748,650.5,212.7773,652.5,212.8461,654.5,212.4751,656.5,212.7129,656.4223,212.7129,656.0735,222.7538,656.1165,232.7947,656.4318,242.8356,655.8086,252.8766,657.0536,262.9175,655.8697,272.9584,656.3022,282.9993,656.9319,293.0402,656.4142,303.0812,656.5682,313.1221,656.4681,323.163,656.6785,333.2039,656.7391,343.2448,657.0857,353.2857,657.1711,363.3267,657.1793,373.3676,656.7546,383.4085,656.9636,393.4494,657.2022,403.4903,655.7788,413.5313,657.1785,423.5722,656.2035,433.6131,657.0338,443.654,656.005,453.6949,656.4315,463.7358,657.2416,473.7768,656.4513,483.8177,656.6053,493.8586,656.8386,503.8995,656.9162,513.9404,656.4961,523.9813,656.7872,534.0223,655.9276,544.0632,656.7844,554.1041,657.0482,564.145,656.9445,574.1859,657.113,584.2269,656.0169,594.2678,655.8478,604.3087,655.8786,614.3496,656.4411,624.3905,656.3035,634.4314,657.1814,644.4724,656.3253,654.5133,656.1569,664.5542,656.7283,674.5951,655.8332,684.636,655.9809,694.677,657.149,704.7179,656.9357,714.7588,657.2345,724.7997,656.1782,734.8406,656.8192,744.8815,657.0904,754.9225,656.0276,764.9634,656.4041,775.0043,656.626,785.0452,657.1518,795.0861,656.4958,805.1271,656.9626,815.168,655.9462,825.2089,655.8227,835.2498,657.0036,845.2907,655.7831,855.3316,657.009,865.3726,656.7066,875.4135,656.2321,885.4544,656.1462,895.4953,656.9588,905.5362,656.5,915.5771,656.5,915.4774,654.5,915.7744,652.5,915.3929,650.5,915.783,648.5,915.7386,646.5,915.5771,646.745,915.5771,646.5472,905.5362,647.2266,895.4953,647.1136,885.4544,646.6693,875.4135,646.7682,865.3726,646.3697,855.3316,647.2165,845.2907,646.6549,835.2498,646.6726,825.2089,645.8916,815.168,646.0948,805.1271,647.0307,795.0861,646.9298,785.0452,646.4571,775.0043,646.1778,764.9634,646.2811,754.9225,645.8138,744.8815,646.9147,734.8406,647.2396,724.7997,647.0264,714.7588,647.1949,704.7179,646.3633,694.677,646.5872,684.636,646.1124,674.5951,646.784,664.5542,646.7468,654.5133,647.0524,644.4724,646.2703,634.4314,646.3656,624.3905,646.9435,614.3496,647.0673,604.3087,645.9875,594.2678,646.3061,584.2269,646.6493,574.1859,645.8892,564.145,646.8534,554.1041,646.758,544.0632,646.3992,534.0223,646.6422,523.9813,647.2287,513.9404,646.1871,503.8995,646.815,493.8586,646.7856,483.8177,646.6158,473.7768,646.6409,463.7358,646.6135,453.6949,645.8758,443.654,646.0992,433.6131,646.0385,423.5722,646.5638,413.5313,646.5881,403.4903,646.6617,393.4494,646.209,383.4085,646.4325,373.3676,646.3798,363.3267,647.0769,353.2857,646.9266,343.2448,646.0145,333.2039,646.4271,323.163,645.9228,313.1221,646.7884,303.0812,647.1085,293.0402,647.0446,282.9993,646.0644,272.9584,646.964,262.9175,645.7572,252.8766,646.7002,242.8356,646.2007,232.7947,646.5967,222.7538,646.5,212.7129" style="stroke: #0000FF; stroke-width: 1.0;"/><polygon fill="#A9DCDF" filter="url(#fz26ku8s4a0ms)" points="725.5,302.1836,725.5,302.2537,727.5,302.0455,729.5,302.248,731.5,302.3168,733.5,301.9458,735.5,302.1836,735.4223,302.1836,735.0735,312.0522,735.1165,321.9208,735.4318,331.7894,734.8086,341.6579,736.0536,351.5265,734.8697,361.3951,735.3022,371.2637,735.9319,381.1323,735.4142,391.0009,735.5682,400.8695,735.4681,410.7381,735.6785,420.6067,735.7391,430.4752,736.0857,440.3438,736.1711,450.2124,736.1793,460.081,735.7546,469.9496,735.9636,479.8182,736.2022,489.6868,734.7788,499.5554,736.1785,509.424,735.2035,519.2925,735.5,529.1611,735.5,529.3391,733.5,528.9961,731.5,529.1383,729.5,529.4083,727.5,529.1449,725.5,529.1611,725.6053,529.1611,725.8386,519.2925,725.9162,509.424,725.4961,499.5554,725.7872,489.6868,724.9276,479.8182,725.7844,469.9496,726.0482,460.081,725.9445,450.2124,726.113,440.3438,725.0169,430.4752,724.8478,420.6067,724.8786,410.7381,725.4411,400.8695,725.3035,391.0009,726.1814,381.1323,725.3253,371.2637,725.1569,361.3951,725.7283,351.5265,724.8332,341.6579,724.9809,331.7894,726.149,321.9208,725.9357,312.0522,725.5,302.1836" style="stroke: #0000FF; stroke-width: 1.0;"/><text fill="#A9DCDF" font-family="Impact" font-size="17" lengthAdjust="spacingAndGlyphs" textLength="152" x="270" y="97.1953">DagFileProcessor:List</text><polygon fill="#1E90FF" filter="url(#fz26ku8s4a0ms)" points="620,181.4023,620,181.6125,629.8333,180.988,639.6667,181.5956,649.5,181.802,659.3333,180.6889,669.1667,181.3246,679,181.4023,678.8578,181.4023,678.8722,188.3494,678.9773,195.2965,678.7695,202.2436,679.1845,209.1906,679,216.1377,679,215.5074,669.1667,215.9399,659.3333,216.5696,649.5,216.0519,639.6667,216.2059,629.8333,216.1057,620,216.1377,620.0595,216.1377,620.0797,209.1906,620.1952,202.2436,620.2237,195.2965,620.2264,188.3494,620,181.4023" style="stroke: #00BFFF; stroke-width: 1.5;"/><text fill="#A9DCDF" font-family="Impact" font-size="17" lengthAdjust="spacingAndGlyphs" textLength="45" x="627" y="205.5518">Queue</text><polygon fill="#1E90FF" filter="url(#fz26ku8s4a0ms)" points="693,231.1377,693,231.3479,703.1429,230.7234,713.2857,231.331,723.4286,231.5374,733.5714,230.4243,743.7143,231.06,753.8571,230.7112,764,231.1377,763.8722,231.1377,763.9773,238.0848,763.7695,245.0318,764.1845,251.9789,763.7899,258.926,764,265.873,764,265.6753,753.8571,266.305,743.7143,265.7873,733.5714,265.9413,723.4286,265.8411,713.2857,266.0516,703.1429,266.1122,693,265.873,693.1952,265.873,693.2237,258.926,693.2264,251.9789,693.0849,245.0318,693.1545,238.0848,693,231.1377" style="stroke: #00BFFF; stroke-width: 1.5;"/><text fill="#A9DCDF" font-family="Impact" font-size="17" lengthAdjust="spacingAndGlyphs" textLength="57" x="700" y="255.2871">Process</text><polygon fill="#1E90FF" filter="url(#fz26ku8s4a0ms)" points="495,399.4941,495,399.7043,505.0909,399.0798,515.1818,399.6874,525.2727,399.8938,535.3636,398.7807,545.4545,399.4164,555.5455,399.0676,565.6364,399.1106,575.7273,399.426,585.8182,398.8028,595.9091,400.0478,606,399.4941,605.7899,399.4941,605.9341,406.4412,606.144,413.3883,605.9714,420.3354,606.0227,427.2824,606,434.2295,606,434.1975,595.9091,434.408,585.8182,434.4686,575.7273,434.8152,565.6364,434.9005,555.5455,434.9087,545.4545,434.4841,535.3636,434.6931,525.2727,434.9317,515.1818,433.5083,505.0909,434.908,495,434.2295,494.9012,434.2295,495.1779,427.2824,494.835,420.3354,494.9772,413.3883,495.2472,406.4412,495,399.4941" style="stroke: #00BFFF; stroke-width: 1.5;"/><text fill="#A9DCDF" font-family="Impact" font-size="17" lengthAdjust="spacingAndGlyphs" textLength="97" x="502" y="423.6436">SchedulerJob</text><polygon fill="#EEEBDC" filter="url(#fz26ku8s4a0ms)" points="253,692.0928,253,692.303,263,691.6785,273,692.2861,283,692.4925,293,691.3794,303,692.0151,313,691.6663,323,691.7093,333,692.0246,343,691.4014,353,692.6464,363,691.4625,373,691.895,383,692.5247,393,692.007,403,692.161,413,692.0608,423,692.2713,433,692.3319,443,692.6785,453,692.7638,463,692.772,473,692.3474,483,692.5564,493,692.795,503,691.3716,513,692.7713,523,691.7963,533,692.6266,543,691.5978,553,692.0243,563,692.8344,573,692.044,583,692.1981,593,692.4314,603,692.509,613,692.0889,623,692.38,633,691.5204,643,692.3772,653,692.641,663,692.5373,673,692.7058,683,691.6097,693,692.0928,692.3478,692.0928,692.3786,701.5842,692.9411,711.0757,692.8035,720.5671,693.6814,730.0586,692.8253,739.55,692.6569,749.0415,693.2283,758.533,693,768.0244,693,767.3576,683,767.5053,673,768.6734,663,768.4601,653,768.7589,643,767.7026,633,768.3436,623,768.6148,613,767.552,603,767.9286,593,768.1504,583,768.6762,573,768.0202,563,768.487,553,767.4706,543,767.3472,533,768.528,523,767.3075,513,768.5334,503,768.231,493,767.7565,483,767.6706,473,768.4832,463,767.7251,453,768.6163,443,767.4717,433,768.6418,423,768.5087,413,768.2694,403,768.0716,393,768.751,383,768.638,373,768.1937,363,768.2926,353,767.8941,343,768.7409,333,768.1793,323,768.197,313,767.4161,303,767.6192,293,768.5552,283,768.4542,273,767.9815,263,767.7022,253,768.0244,252.7811,768.0244,252.3138,758.533,253.4147,749.0415,253.7396,739.55,253.5264,730.0586,253.6949,720.5671,252.8633,711.0757,253.0872,701.5842,253,692.0928" style="stroke: #000000; stroke-width: 2.0;"/><polygon fill="#EEEBDC" filter="url(#fz26ku8s4a0ms)" points="13,811.335,13,811.5451,23,810.9206,33,811.5282,43,811.7346,53,810.6216,63,811.2572,73,810.9085,83,810.9515,93,811.2668,103,810.6436,113,811.8886,123,810.7047,133,811.1372,143,811.7669,153,811.2492,163,811.4032,173,811.303,183,811.5135,193,811.5741,203,811.9207,213,812.006,223,812.0142,233,811.5896,243,811.7985,253,812.0372,263,810.6138,273,812.0135,283,811.0385,293,811.8688,303,810.8399,313,811.2665,323,812.0766,333,811.2862,343,811.4403,353,811.6736,363,811.7512,373,811.3311,383,811.6222,393,810.7625,403,811.6193,413,811.8832,423,811.7795,433,811.948,443,811.335,442.5169,811.335,442.3478,820.8264,442.3786,830.3179,442.9411,839.8093,442.8035,849.3008,443.6814,858.7922,442.8253,868.2837,442.6569,877.7751,443,887.2666,443,887.4949,433,886.5998,423,886.7475,413,887.9156,403,887.7023,393,888.0011,383,886.9448,373,887.5858,363,887.857,353,886.7942,343,887.1707,333,887.3926,323,887.9184,313,887.2624,303,887.7292,293,886.7128,283,886.5893,273,887.7702,263,886.5497,253,887.7756,243,887.4732,233,886.9987,223,886.9128,213,887.7254,203,886.9673,193,887.8585,183,886.7139,173,887.884,163,887.7509,153,887.5116,143,887.3138,133,887.9932,123,887.8802,113,887.4359,103,887.5348,93,887.1363,83,887.9831,73,887.4215,63,887.4392,53,886.6583,43,886.8614,33,887.7973,23,887.6964,13,887.2666,12.9571,887.2666,12.6778,877.7751,12.7811,868.2837,12.3138,858.7922,13.4147,849.3008,13.7396,839.8093,13.5264,830.3179,13.6949,820.8264,13,811.335" style="stroke: #000000; stroke-width: 2.0;"/><path d="M126,63.0459 L126.2802,63.0459 L125.4476,73.052 L126.2577,83.0581 L126.5329,93.0642 L125.0488,103.0703 L125.8964,113.0764 L125.4313,123.0825 L125.4887,133.0886 L125.9091,143.0947 L125.0782,153.1009 L126.7382,163.107 L125.1596,173.1131 L125.7363,183.1192 L126.5759,193.1253 L125.8856,203.1314 L126.091,213.1375 L125.9574,223.1436 L126.238,233.1497 L126.3188,243.1558 L126.7809,253.1619 L126.8947,263.168 L126.9057,273.1741 L126.3395,283.1802 L126.6181,293.1863 L126.9363,303.1925 L125.0384,313.1986 L126.9047,323.2047 L125.6047,333.2108 L126.7117,343.2169 L125.34,353.223 L125.9087,363.2291 L126.9888,373.2352 L125.935,383.2413 L126.1404,393.2474 L126.4515,403.2535 L126.555,413.2596 L125.9948,423.2657 L126.383,433.2718 L125.2368,443.2779 L126.3792,453.284 L126.7309,463.2902 L126.5927,473.2963 L126.8174,483.3024 L125.3559,493.3085 L125.1304,503.3146 L125.1715,513.3207 L125.9215,523.3268 L125.738,533.3329 L126.9085,543.339 L125.7671,553.3451 L125.5426,563.3512 L126.3044,573.3573 L125.1109,583.3634 L125.3078,593.3695 L126.8653,603.3756 L126.5809,613.3817 L126.9793,623.3879 L125.5709,633.394 L126.4256,643.4001 L126.7872,653.4062 L125.3701,663.4123 L125.8722,673.4184 L126.168,683.4245 L126.869,693.4306 L125.9944,703.4367 L126.6168,713.4428 L125.2616,723.4489 L125.097,733.455 L126.6715,743.4611 L125.0441,753.4672 L126.6786,763.4733 L126.2755,773.4794 L125.6428,783.4856 L125.5283,793.4917 L126.6117,803.4978 L125.6009,813.5039 L126.7891,823.51 L125.263,833.5161 L126.8232,843.5222 L126.6457,853.5283 L126.3266,863.5344 L126.063,873.5405 L126.9688,883.5466 L126.8181,893.5527 L126.2257,903.5588 L126.3576,913.5649 L125.8263,923.571 L126,933.5771 " fill="none" style="stroke: #0000FF; stroke-width: 1.0; stroke-dasharray: 5.0,5.0;"/><path d="M348,107.9136 L348.2802,107.9136 L347.4476,117.8613 L348.2577,127.8091 L348.5329,137.7568 L347.0488,147.7046 L347.8964,157.6523 L347.4313,167.6001 L347.4887,177.5479 L347.9091,187.4956 L347.0782,197.4434 L348.7382,207.3911 L347.1596,217.3389 L347.7363,227.2866 L348.5759,237.2344 L347.8856,247.1821 L348.091,257.1299 L347.9574,267.0776 L348.238,277.0254 L348.3188,286.9731 L348.7809,296.9209 L348.8947,306.8687 L348.9057,316.8164 L348.3395,326.7642 L348.6181,336.7119 L348.9363,346.6597 L347.0384,356.6074 L348.9047,366.5552 L347.6047,376.5029 L348.7117,386.4507 L347.34,396.3984 L347.9087,406.3462 L348.9888,416.2939 L347.935,426.2417 L348.1404,436.1895 L348.4515,446.1372 L348.555,456.085 L347.9948,466.0327 L348.383,475.9805 L347.2368,485.9282 L348.3792,495.876 L348.7309,505.8237 L348.5927,515.7715 L348.8174,525.7192 L347.3559,535.667 L347.1304,545.6147 L347.1715,555.5625 L347.9215,565.5103 L347.738,575.458 L348.9085,585.4058 L347.7671,595.3535 L347.5426,605.3013 L348.3044,615.249 L347.1109,625.1968 L347.3078,635.1445 L348.8653,645.0923 L348.5809,655.04 L348.9793,664.9878 L347.5709,674.9355 L348.4256,684.8833 L348.7872,694.8311 L347.3701,704.7788 L347.8722,714.7266 L348.168,724.6743 L348.869,734.6221 L347.9944,744.5698 L348.6168,754.5176 L347.2616,764.4653 L347.097,774.4131 L348.6715,784.3608 L347.0441,794.3086 L348.6786,804.2563 L348.2755,814.2041 L347.6428,824.1519 L347.5283,834.0996 L348.6117,844.0474 L347.6009,853.9951 L348.7891,863.9429 L347.263,873.8906 L348.8232,883.8384 L348.6457,893.7861 L348.3266,903.7339 L348.063,913.6816 L348.9688,923.6294 L348,933.5771 " fill="none" style="stroke: #0000FF; stroke-width: 1.0; stroke-dasharray: 5.0,5.0;"/><path d="M552,434.3618 L552.2802,434.3618 L551.4476,444.3461 L552.2577,454.3304 L552.5329,464.3147 L551.0488,474.299 L551.8964,484.2833 L551.4313,494.2677 L551.4887,504.252 L551.9091,514.2363 L551.0782,524.2206 L552.7382,534.2049 L551.1596,544.1892 L551.7363,554.1735 L552.5759,564.1578 L551.8856,574.1421 L552.091,584.1264 L551.9574,594.1107 L552.238,604.095 L552.3188,614.0793 L552.7809,624.0636 L552.8947,634.0479 L552.9057,644.0323 L552.3395,654.0166 L552.6181,664.0009 L552.9363,673.9852 L551.0384,683.9695 L552.9047,693.9538 L551.6047,703.9381 L552.7117,713.9224 L551.34,723.9067 L551.9087,733.891 L552.9888,743.8753 L551.935,753.8596 L552.1404,763.8439 L552.4515,773.8282 L552.555,783.8125 L551.9948,793.7969 L552.383,803.7812 L551.2368,813.7655 L552.3792,823.7498 L552.7309,833.7341 L552.5927,843.7184 L552.8174,853.7027 L551.3559,863.687 L551.1304,873.6713 L551.1715,883.6556 L551.9215,893.6399 L551.738,903.6242 L552.9085,913.6085 L551.7671,923.5928 L552,933.5771 " fill="none" style="stroke: #0000FF; stroke-width: 1.0; stroke-dasharray: 5.0,5.0;"/><path d="M651,216.27 L651.2802,216.27 L650.4476,226.2326 L651.2577,236.1952 L651.5329,246.1578 L650.0488,256.1204 L650.8964,266.083 L650.4313,276.0456 L650.4887,286.0082 L650.9091,295.9708 L650.0782,305.9334 L651.7382,315.896 L650.1596,325.8586 L650.7363,335.8212 L651.5759,345.7838 L650.8856,355.7464 L651.091,365.709 L650.9574,375.6716 L651.238,385.6342 L651.3188,395.5968 L651.7809,405.5594 L651.8947,415.522 L651.9057,425.4846 L651.3395,435.4472 L651.6181,445.4098 L651.9363,455.3724 L650.0384,465.335 L651.9047,475.2976 L650.6047,485.2602 L651.7117,495.2228 L650.34,505.1854 L650.9087,515.148 L651.9888,525.1106 L650.935,535.0732 L651.1404,545.0358 L651.4515,554.9984 L651.555,564.961 L650.9948,574.9236 L651.383,584.8862 L650.2368,594.8488 L651.3792,604.8114 L651.7309,614.774 L651.5927,624.7366 L651.8174,634.6992 L650.3559,644.6618 L650.1304,654.6244 L650.1715,664.587 L650.9215,674.5496 L650.738,684.5122 L651.9085,694.4748 L650.7671,704.4374 L650.5426,714.4 L651.3044,724.3626 L650.1109,734.3252 L650.3078,744.2878 L651.8653,754.2504 L651.5809,764.213 L651.9793,774.1756 L650.5709,784.1382 L651.4256,794.1008 L651.7872,804.0634 L650.3701,814.026 L650.8722,823.9886 L651.168,833.9512 L651.869,843.9138 L650.9944,853.8764 L651.6168,863.839 L650.2616,873.8016 L650.097,883.7642 L651.6715,893.7268 L650.0441,903.6894 L651.6786,913.652 L651.2755,923.6145 L651,933.5771 " fill="none" style="stroke: #0000FF; stroke-width: 1.0; stroke-dasharray: 5.0,5.0;"/><path d="M730,266.0054 L730.2802,266.0054 L729.4476,275.9691 L730.2577,285.9329 L730.5329,295.8966 L729.0488,305.8604 L729.8964,315.8242 L729.4313,325.7879 L729.4887,335.7517 L729.9091,345.7154 L729.0782,355.6792 L730.7382,365.6429 L729.1596,375.6067 L729.7363,385.5705 L730.5759,395.5342 L729.8856,405.498 L730.091,415.4617 L729.9574,425.4255 L730.238,435.3893 L730.3188,445.353 L730.7809,455.3168 L730.8947,465.2805 L730.9057,475.2443 L730.3395,485.208 L730.6181,495.1718 L730.9363,505.1356 L729.0384,515.0993 L730.9047,525.0631 L729.6047,535.0268 L730.7117,544.9906 L729.34,554.9543 L729.9087,564.9181 L730.9888,574.8819 L729.935,584.8456 L730.1404,594.8094 L730.4515,604.7731 L730.555,614.7369 L729.9948,624.7007 L730.383,634.6644 L729.2368,644.6282 L730.3792,654.5919 L730.7309,664.5557 L730.5927,674.5194 L730.8174,684.4832 L729.3559,694.447 L729.1304,704.4107 L729.1715,714.3745 L729.9215,724.3382 L729.738,734.302 L730.9085,744.2657 L729.7671,754.2295 L729.5426,764.1933 L730.3044,774.157 L729.1109,784.1208 L729.3078,794.0845 L730.8653,804.0483 L730.5809,814.0121 L730.9793,823.9758 L729.5709,833.9396 L730.4256,843.9033 L730.7872,853.8671 L729.3701,863.8308 L729.8722,873.7946 L730.168,883.7584 L730.869,893.7221 L729.9944,903.6859 L730.6168,913.6496 L729.2616,923.6134 L730,933.5771 " fill="none" style="stroke: #0000FF; stroke-width: 1.0; stroke-dasharray: 5.0,5.0;"/><polygon fill="#1E90FF" filter="url(#fz26ku8s4a0ms)" points="23,23.3105,23,23.5207,33.1,22.8962,43.2,23.5038,53.3,23.7102,63.4,22.5972,73.5,23.2328,83.6,22.8841,93.7,22.927,103.8,23.2424,113.9,22.6192,124,23.8642,134.1,22.6803,144.2,23.1128,154.3,23.7425,164.4,23.2248,174.5,23.3788,184.6,23.2786,194.7,23.4891,204.8,23.5497,214.9,23.8962,225,23.3105,225.2237,23.3105,225.2264,30.2576,225.0849,37.2047,225.1545,44.1518,225.2341,51.0988,225,58.0459,225,57.3247,214.9,58.7244,204.8,57.7494,194.7,58.5797,184.6,57.5509,174.5,57.9774,164.4,58.7875,154.3,57.9972,144.2,58.1512,134.1,58.3845,124,58.4621,113.9,58.042,103.8,58.3331,93.7,57.4735,83.6,58.3303,73.5,58.5941,63.4,58.4904,53.3,58.6589,43.2,57.5628,33.1,57.3937,23,58.0459,22.7929,58.0459,22.9804,51.0988,22.9345,44.1518,23.2271,37.2047,22.9418,30.2576,23,23.3105" style="stroke: #00BFFF; stroke-width: 1.5;"/><text fill="#A9DCDF" font-family="Impact" font-size="17" lengthAdjust="spacingAndGlyphs" textLength="188" x="30" y="47.46">DagFileProcessorManager</text><polygon fill="#1E90FF" filter="url(#fz26ku8s4a0ms)" points="23,932.5771,23,932.7873,33.1,932.1628,43.2,932.7704,53.3,932.9768,63.4,931.8638,73.5,932.4994,83.6,932.1507,93.7,932.1936,103.8,932.509,113.9,931.8858,124,933.1308,134.1,931.9469,144.2,932.3794,154.3,933.0091,164.4,932.4914,174.5,932.6454,184.6,932.5452,194.7,932.7557,204.8,932.8163,214.9,933.1628,225,932.5771,225.2237,932.5771,225.2264,939.5242,225.0849,946.4713,225.1545,953.4184,225.2341,960.3654,225,967.3125,225,966.5913,214.9,967.991,204.8,967.016,194.7,967.8463,184.6,966.8175,174.5,967.244,164.4,968.0541,154.3,967.2638,144.2,967.4178,134.1,967.6511,124,967.7287,113.9,967.3086,103.8,967.5997,93.7,966.7401,83.6,967.5969,73.5,967.8607,63.4,967.757,53.3,967.9255,43.2,966.8294,33.1,966.6603,23,967.3125,22.7929,967.3125,22.9804,960.3654,22.9345,953.4184,23.2271,946.4713,22.9418,939.5242,23,932.5771" style="stroke: #00BFFF; stroke-width: 1.5;"/><text fill="#A9DCDF" font-family="Impact" font-size="17" lengthAdjust="spacingAndGlyphs" textLength="188" x="30" y="956.7266">DagFileProcessorManager</text><polygon fill="#1E90FF" filter="url(#fz26ku8s4a0ms)" points="263,932.5771,263,932.7873,272.7647,932.1628,282.5294,932.7704,292.2941,932.9768,302.0588,931.8638,311.8235,932.4994,321.5882,932.1507,331.3529,932.1936,341.1176,932.509,350.8824,931.8858,360.6471,933.1308,370.4118,931.9469,380.1765,932.3794,389.9412,933.0091,399.7059,932.4914,409.4706,932.6454,419.2353,932.5452,429,932.5771,429.0595,932.5771,429.0797,939.5242,429.1952,946.4713,429.2237,953.4184,429.2264,960.3654,429,967.3125,429,967.5671,419.2353,967.7761,409.4706,968.0147,399.7059,966.5913,389.9412,967.991,380.1765,967.016,370.4118,967.8463,360.6471,966.8175,350.8824,967.244,341.1176,968.0541,331.3529,967.2638,321.5882,967.4178,311.8235,967.6511,302.0588,967.7287,292.2941,967.3086,282.5294,967.5997,272.7647,966.7401,263,967.3125,263.0948,967.3125,263.1827,960.3654,263.1482,953.4184,263.2043,946.4713,262.839,939.5242,263,932.5771" style="stroke: #00BFFF; stroke-width: 1.5;"/><text fill="#A9DCDF" font-family="Impact" font-size="17" lengthAdjust="spacingAndGlyphs" textLength="152" x="270" y="956.7266">DagFileProcessor:List</text><polygon fill="#1E90FF" filter="url(#fz26ku8s4a0ms)" points="495,932.5771,495,932.7873,505.0909,932.1628,515.1818,932.7704,525.2727,932.9768,535.3636,931.8638,545.4545,932.4994,555.5455,932.1507,565.6364,932.1936,575.7273,932.509,585.8182,931.8858,595.9091,933.1308,606,932.5771,605.7899,932.5771,605.9341,939.5242,606.144,946.4713,605.9714,953.4184,606.0227,960.3654,606,967.3125,606,967.2806,595.9091,967.491,585.8182,967.5516,575.7273,967.8982,565.6364,967.9836,555.5455,967.9918,545.4545,967.5671,535.3636,967.7761,525.2727,968.0147,515.1818,966.5913,505.0909,967.991,495,967.3125,494.9012,967.3125,495.1779,960.3654,494.835,953.4184,494.9772,946.4713,495.2472,939.5242,495,932.5771" style="stroke: #00BFFF; stroke-width: 1.5;"/><text fill="#A9DCDF" font-family="Impact" font-size="17" lengthAdjust="spacingAndGlyphs" textLength="97" x="502" y="956.7266">SchedulerJob</text><polygon fill="#1E90FF" filter="url(#fz26ku8s4a0ms)" points="620,932.5771,620,932.7873,629.8333,932.1628,639.6667,932.7704,649.5,932.9768,659.3333,931.8638,669.1667,932.4994,679,932.5771,678.8578,932.5771,678.8722,939.5242,678.9773,946.4713,678.7695,953.4184,679.1845,960.3654,679,967.3125,679,966.6822,669.1667,967.1147,659.3333,967.7444,649.5,967.2267,639.6667,967.3807,629.8333,967.2806,620,967.3125,620.0595,967.3125,620.0797,960.3654,620.1952,953.4184,620.2237,946.4713,620.2264,939.5242,620,932.5771" style="stroke: #00BFFF; stroke-width: 1.5;"/><text fill="#A9DCDF" font-family="Impact" font-size="17" lengthAdjust="spacingAndGlyphs" textLength="45" x="627" y="956.7266">Queue</text><polygon fill="#1E90FF" filter="url(#fz26ku8s4a0ms)" points="693,932.5771,693,932.7873,703.1429,932.1628,713.2857,932.7704,723.4286,932.9768,733.5714,931.8638,743.7143,932.4994,753.8571,932.1507,764,932.5771,763.8722,932.5771,763.9773,939.5242,763.7695,946.4713,764.1845,953.4184,763.7899,960.3654,764,967.3125,764,967.1147,753.8571,967.7444,743.7143,967.2267,733.5714,967.3807,723.4286,967.2806,713.2857,967.491,703.1429,967.5516,693,967.3125,693.1952,967.3125,693.2237,960.3654,693.2264,953.4184,693.0849,946.4713,693.1545,939.5242,693,932.5771" style="stroke: #00BFFF; stroke-width: 1.5;"/><text fill="#A9DCDF" font-family="Impact" font-size="17" lengthAdjust="spacingAndGlyphs" textLength="57" x="700" y="956.7266">Process</text><polygon fill="#A9DCDF" filter="url(#fz26ku8s4a0ms)" points="121,144.0918,121,144.1619,123,143.9537,125,144.1562,127,144.225,129,143.854,131,144.0918,130.9223,144.0918,130.5735,154.1111,130.6165,164.1304,130.9318,174.1497,130.3086,184.169,131.5536,194.1882,130.3697,204.2075,130.8022,214.2268,131.4319,224.2461,130.9142,234.2654,131.0682,244.2847,130.9681,254.304,131.1785,264.3233,131.2391,274.3426,131.5857,284.3619,131.6711,294.3812,131.6793,304.4004,131.2546,314.4197,131.4636,324.439,131.7022,334.4583,130.2788,344.4776,131.6785,354.4969,130.7035,364.5162,131.5338,374.5355,130.505,384.5548,130.9315,394.5741,131.7416,404.5933,130.9513,414.6126,131.1053,424.6319,131.3386,434.6512,131.4162,444.6705,130.9961,454.6898,131.2872,464.7091,130.4276,474.7284,131.2844,484.7477,131.5482,494.767,131.4445,504.7862,131.613,514.8055,130.5169,524.8248,130.3478,534.8441,130.3786,544.8634,130.9411,554.8827,130.8035,564.902,131.6814,574.9213,130.8253,584.9406,130.6569,594.9599,131.2283,604.9791,130.3332,614.9984,130.4809,625.0177,131.649,635.037,131.4357,645.0563,131.7345,655.0756,130.6782,665.0949,131.3192,675.1142,131.5904,685.1335,130.5276,695.1528,130.9041,705.1721,131.126,715.1913,131.6518,725.2106,130.9958,735.2299,131.4626,745.2492,130.4462,755.2685,130.3227,765.2878,131.5036,775.3071,130.2831,785.3264,131.509,795.3457,131.2066,805.365,130.7321,815.3842,130.6462,825.4035,131.4588,835.4228,130.7007,845.4421,131.5919,855.4614,130.4473,865.4807,131.6174,875.5,131.4843,885.5193,131.245,895.5386,131.0472,905.5579,131,915.5771,131,915.8194,129,915.7817,127,915.6336,125,915.6665,123,915.5337,121,915.5771,121.7165,915.5771,121.1549,905.5579,121.1726,895.5386,120.3916,885.5193,120.5948,875.5,121.5307,865.4807,121.4298,855.4614,120.9571,845.4421,120.6778,835.4228,120.7811,825.4035,120.3138,815.3842,121.4147,805.365,121.7396,795.3457,121.5264,785.3264,121.6949,775.3071,120.8633,765.2878,121.0872,755.2685,120.6124,745.2492,121.284,735.2299,121.2468,725.2106,121.5524,715.1913,120.7703,705.1721,120.8656,695.1528,121.4435,685.1335,121.5673,675.1142,120.4875,665.0949,120.8061,655.0756,121.1493,645.0563,120.3892,635.037,121.3534,625.0177,121.258,614.9984,120.8992,604.9791,121.1422,594.9599,121.7287,584.9406,120.6871,574.9213,121.315,564.902,121.2856,554.8827,121.1158,544.8634,121.1409,534.8441,121.1135,524.8248,120.3758,514.8055,120.5992,504.7862,120.5385,494.767,121.0638,484.7477,121.0881,474.7284,121.1617,464.7091,120.709,454.6898,120.9325,444.6705,120.8798,434.6512,121.5769,424.6319,121.4266,414.6126,120.5145,404.5933,120.9271,394.5741,120.4228,384.5548,121.2884,374.5355,121.6085,364.5162,121.5446,354.4969,120.5644,344.4776,121.464,334.4583,120.2572,324.439,121.2002,314.4197,120.7007,304.4004,121.0967,294.3812,121.2403,284.3619,121.4721,274.3426,120.2801,264.3233,121.4755,254.304,121.1782,244.2847,121.3553,234.2654,121.7478,224.2461,121.0055,214.2268,121.1753,204.2075,121.2134,194.1882,121.1972,184.169,120.9992,174.1497,121.7107,164.1304,120.3903,154.1111,121,144.0918" style="stroke: #0000FF; stroke-width: 1.0;"/><polygon fill="#A9DCDF" filter="url(#fz26ku8s4a0ms)" points="343,104.3564,343,104.4265,345,104.2183,347,104.4209,349,104.4897,351,104.1186,353,104.3564,352.9223,104.3564,352.5735,114.3715,352.6165,124.3866,352.9318,134.4017,352.3086,144.4167,353.5536,154.4318,352.3697,164.4469,352.8022,174.4619,353.4319,184.477,352.9142,194.4921,353.0682,204.5071,352.9681,214.5222,353.1785,224.5373,353.2391,234.5524,353.5857,244.5674,353.6711,254.5825,353.6793,264.5976,353.2546,274.6126,353.4636,284.6277,353.7022,294.6428,352.2788,304.6579,353.6785,314.6729,352.7035,324.688,353.5338,334.7031,352.505,344.7181,352.9315,354.7332,353.7416,364.7483,352.9513,374.7633,353.1053,384.7784,353.3386,394.7935,353.4162,404.8086,352.9961,414.8236,353.2872,424.8387,352.4276,434.8538,353.2844,444.8688,353.5482,454.8839,353.4445,464.899,353.613,474.9141,352.5169,484.9291,352.3478,494.9442,352.3786,504.9593,352.9411,514.9743,352.8035,524.9894,353.6814,535.0045,352.8253,545.0195,352.6569,555.0346,353.2283,565.0497,352.3332,575.0648,352.4809,585.0798,353.649,595.0949,353.4357,605.11,353.7345,615.125,352.6782,625.1401,353.3192,635.1552,353.5904,645.1702,352.5276,655.1853,352.9041,665.2004,353.126,675.2155,353.6518,685.2305,352.9958,695.2456,353.4626,705.2607,352.4462,715.2757,352.3227,725.2908,353.5036,735.3059,352.2831,745.321,353.509,755.336,353.2066,765.3511,352.7321,775.3662,352.6462,785.3812,353.4588,795.3963,352.7007,805.4114,353.5919,815.4264,352.4473,825.4415,353.6174,835.4566,353.4843,845.4717,353.245,855.4867,353.0472,865.5018,353.7266,875.5169,353.6136,885.5319,353.1693,895.547,353.2682,905.5621,353,915.5771,353,915.5337,351,915.816,349,915.6288,347,915.6347,345,915.3744,343,915.5771,342.5948,915.5771,343.5307,905.5621,343.4298,895.547,342.9571,885.5319,342.6778,875.5169,342.7811,865.5018,342.3138,855.4867,343.4147,845.4717,343.7396,835.4566,343.5264,825.4415,343.6949,815.4264,342.8633,805.4114,343.0872,795.3963,342.6124,785.3812,343.284,775.3662,343.2468,765.3511,343.5524,755.336,342.7703,745.321,342.8656,735.3059,343.4435,725.2908,343.5673,715.2757,342.4875,705.2607,342.8061,695.2456,343.1493,685.2305,342.3892,675.2155,343.3534,665.2004,343.258,655.1853,342.8992,645.1702,343.1422,635.1552,343.7287,625.1401,342.6871,615.125,343.315,605.11,343.2856,595.0949,343.1158,585.0798,343.1409,575.0648,343.1135,565.0497,342.3758,555.0346,342.5992,545.0195,342.5385,535.0045,343.0638,524.9894,343.0881,514.9743,343.1617,504.9593,342.709,494.9442,342.9325,484.9291,342.8798,474.9141,343.5769,464.899,343.4266,454.8839,342.5145,444.8688,342.9271,434.8538,342.4228,424.8387,343.2884,414.8236,343.6085,404.8086,343.5446,394.7935,342.5644,384.7784,343.464,374.7633,342.2572,364.7483,343.2002,354.7332,342.7007,344.7181,343.0967,334.7031,343.2403,324.688,343.4721,314.6729,342.2801,304.6579,343.4755,294.6428,343.1782,284.6277,343.3553,274.6126,343.7478,264.5976,343.0055,254.5825,343.1753,244.5674,343.2134,234.5524,343.1972,224.5373,342.9992,214.5222,343.7107,204.5071,342.3903,194.4921,343.5653,184.477,342.376,174.4619,342.4597,164.4469,343.04,154.4318,343.0283,144.4167,342.5072,134.4017,343.4137,124.3866,343.1089,114.3715,343,104.3564" style="stroke: #0000FF; stroke-width: 1.0;"/><polygon fill="#A9DCDF" filter="url(#fz26ku8s4a0ms)" points="348,391.4941,348,391.5642,350,391.356,352,391.5586,354,391.6274,356,391.2563,358,391.4941,357.9223,391.4941,357.5735,401.3275,357.6165,411.1609,357.9318,420.9942,357.3086,430.8276,358.5536,440.6609,357.3697,450.4943,357.8022,460.3276,358.4319,470.161,357.9142,479.9943,358.0682,489.8277,357.9681,499.6611,358.1785,509.4944,358.2391,519.3278,358,529.1611,358,529.3564,356,529.3848,354,529.3876,352,529.246,350,529.3157,348,529.1611,348.7022,529.1611,347.2788,519.3278,348.6785,509.4944,347.7035,499.6611,348.5338,489.8277,347.505,479.9943,347.9315,470.161,348.7416,460.3276,347.9513,450.4943,348.1053,440.6609,348.3386,430.8276,348.4162,420.9942,347.9961,411.1609,348.2872,401.3275,348,391.4941" style="stroke: #0000FF; stroke-width: 1.0;"/><polygon fill="#A9DCDF" filter="url(#fz26ku8s4a0ms)" points="646.5,212.7129,646.5,212.783,648.5,212.5748,650.5,212.7773,652.5,212.8461,654.5,212.4751,656.5,212.7129,656.4223,212.7129,656.0735,222.7538,656.1165,232.7947,656.4318,242.8356,655.8086,252.8766,657.0536,262.9175,655.8697,272.9584,656.3022,282.9993,656.9319,293.0402,656.4142,303.0812,656.5682,313.1221,656.4681,323.163,656.6785,333.2039,656.7391,343.2448,657.0857,353.2857,657.1711,363.3267,657.1793,373.3676,656.7546,383.4085,656.9636,393.4494,657.2022,403.4903,655.7788,413.5313,657.1785,423.5722,656.2035,433.6131,657.0338,443.654,656.005,453.6949,656.4315,463.7358,657.2416,473.7768,656.4513,483.8177,656.6053,493.8586,656.8386,503.8995,656.9162,513.9404,656.4961,523.9813,656.7872,534.0223,655.9276,544.0632,656.7844,554.1041,657.0482,564.145,656.9445,574.1859,657.113,584.2269,656.0169,594.2678,655.8478,604.3087,655.8786,614.3496,656.4411,624.3905,656.3035,634.4314,657.1814,644.4724,656.3253,654.5133,656.1569,664.5542,656.7283,674.5951,655.8332,684.636,655.9809,694.677,657.149,704.7179,656.9357,714.7588,657.2345,724.7997,656.1782,734.8406,656.8192,744.8815,657.0904,754.9225,656.0276,764.9634,656.4041,775.0043,656.626,785.0452,657.1518,795.0861,656.4958,805.1271,656.9626,815.168,655.9462,825.2089,655.8227,835.2498,657.0036,845.2907,655.7831,855.3316,657.009,865.3726,656.7066,875.4135,656.2321,885.4544,656.1462,895.4953,656.9588,905.5362,656.5,915.5771,656.5,915.4774,654.5,915.7744,652.5,915.3929,650.5,915.783,648.5,915.7386,646.5,915.5771,646.745,915.5771,646.5472,905.5362,647.2266,895.4953,647.1136,885.4544,646.6693,875.4135,646.7682,865.3726,646.3697,855.3316,647.2165,845.2907,646.6549,835.2498,646.6726,825.2089,645.8916,815.168,646.0948,805.1271,647.0307,795.0861,646.9298,785.0452,646.4571,775.0043,646.1778,764.9634,646.2811,754.9225,645.8138,744.8815,646.9147,734.8406,647.2396,724.7997,647.0264,714.7588,647.1949,704.7179,646.3633,694.677,646.5872,684.636,646.1124,674.5951,646.784,664.5542,646.7468,654.5133,647.0524,644.4724,646.2703,634.4314,646.3656,624.3905,646.9435,614.3496,647.0673,604.3087,645.9875,594.2678,646.3061,584.2269,646.6493,574.1859,645.8892,564.145,646.8534,554.1041,646.758,544.0632,646.3992,534.0223,646.6422,523.9813,647.2287,513.9404,646.1871,503.8995,646.815,493.8586,646.7856,483.8177,646.6158,473.7768,646.6409,463.7358,646.6135,453.6949,645.8758,443.654,646.0992,433.6131,646.0385,423.5722,646.5638,413.5313,646.5881,403.4903,646.6617,393.4494,646.209,383.4085,646.4325,373.3676,646.3798,363.3267,647.0769,353.2857,646.9266,343.2448,646.0145,333.2039,646.4271,323.163,645.9228,313.1221,646.7884,303.0812,647.1085,293.0402,647.0446,282.9993,646.0644,272.9584,646.964,262.9175,645.7572,252.8766,646.7002,242.8356,646.2007,232.7947,646.5967,222.7538,646.5,212.7129" style="stroke: #0000FF; stroke-width: 1.0;"/><polygon fill="#A9DCDF" filter="url(#fz26ku8s4a0ms)" points="725.5,302.1836,725.5,302.2537,727.5,302.0455,729.5,302.248,731.5,302.3168,733.5,301.9458,735.5,302.1836,735.4223,302.1836,735.0735,312.0522,735.1165,321.9208,735.4318,331.7894,734.8086,341.6579,736.0536,351.5265,734.8697,361.3951,735.3022,371.2637,735.9319,381.1323,735.4142,391.0009,735.5682,400.8695,735.4681,410.7381,735.6785,420.6067,735.7391,430.4752,736.0857,440.3438,736.1711,450.2124,736.1793,460.081,735.7546,469.9496,735.9636,479.8182,736.2022,489.6868,734.7788,499.5554,736.1785,509.424,735.2035,519.2925,735.5,529.1611,735.5,529.3391,733.5,528.9961,731.5,529.1383,729.5,529.4083,727.5,529.1449,725.5,529.1611,725.6053,529.1611,725.8386,519.2925,725.9162,509.424,725.4961,499.5554,725.7872,489.6868,724.9276,479.8182,725.7844,469.9496,726.0482,460.081,725.9445,450.2124,726.113,440.3438,725.0169,430.4752,724.8478,420.6067,724.8786,410.7381,725.4411,400.8695,725.3035,391.0009,726.1814,381.1323,725.3253,371.2637,725.1569,361.3951,725.7283,351.5265,724.8332,341.6579,724.9809,331.7894,726.149,321.9208,725.9357,312.0522,725.5,302.1836" style="stroke: #0000FF; stroke-width: 1.0;"/><polygon fill="#00BFFF" points="251,90.3564,251.026,90.4215,252.9487,91.0282,255.0239,92.0163,257.0495,92.8801,258.9117,93.3357,261,94.3564,260.9904,94.3324,258.9472,95.0244,256.9525,95.8378,254.9916,96.7354,252.9144,97.3425,251,98.3564,251.1305,98.4869,251.6514,97.4079,252.5534,96.7098,253.5018,96.0583,254.1798,95.1362,255,94.3564,255.0161,94.3725,254.1925,93.5489,253.4421,92.7985,252.6564,92.0128,251.938,91.2945,251,90.3564" style="stroke: #00BFFF; stroke-width: 1.0;"/><path d="M126,94.3564 L126,94.6367 L136.0769,93.804 L146.1538,94.6142 L156.2308,94.8894 L166.3077,93.4053 L176.3846,94.2528 L186.4615,93.7878 L196.5385,93.8451 L206.6154,94.2656 L216.6923,93.4346 L226.7692,95.0946 L236.8462,93.5161 L246.9231,94.0928 L257,94.3564 " fill="none" style="stroke: #00BFFF; stroke-width: 1.0;"/><text fill="#000000" font-family="sans-serif" font-size="13" lengthAdjust="spacingAndGlyphs" textLength="113" x="133" y="89.6143">&lt;&lt;constructor&gt;&gt;</text><text fill="#A9DCDF" font-family="Impact" font-size="17" lengthAdjust="spacingAndGlyphs" textLength="152" x="270" y="97.1953">DagFileProcessor:List</text><polygon fill="#00BFFF" points="109,140.0918,109.026,140.1568,110.9487,140.7636,113.0239,141.7516,115.0495,142.6155,116.9117,143.071,119,144.0918,118.9904,144.0677,116.9472,144.7598,114.9525,145.5731,112.9916,146.4707,110.9144,147.0778,109,148.0918,109.1305,148.2223,109.6514,147.1432,110.5534,146.4452,111.5018,145.7936,112.1798,144.8716,113,144.0918,113.0161,144.1079,112.1925,143.2843,111.4421,142.5339,110.6564,141.7482,109.938,141.0298,109,140.0918" style="stroke: #00BFFF; stroke-width: 1.0;"/><path d="M3,144.0918 L3,144.372 L13.1818,143.5394 L23.3636,144.3495 L33.5455,144.6247 L43.7273,143.1406 L53.9091,143.9882 L64.0909,143.5231 L74.2727,143.5805 L84.4545,144.0009 L94.6364,143.17 L104.8182,144.83 L115,144.0918 " fill="none" style="stroke: #00BFFF; stroke-width: 1.0;"/><text fill="#000000" font-family="sans-serif" font-size="13" lengthAdjust="spacingAndGlyphs" textLength="59" x="10" y="139.3496">heartbeat</text><polygon fill="#00BFFF" points="331,169.4023,331.026,169.4674,332.9487,170.0741,335.0239,171.0622,337.0495,171.926,338.9117,172.3816,341,173.4023,340.9904,173.3783,338.9472,174.0703,336.9525,174.8837,334.9916,175.7812,332.9144,176.3884,331,177.4023,331.1305,177.5328,331.6514,176.4538,332.5534,175.7557,333.5018,175.1042,334.1798,174.1821,335,173.4023,335.0161,173.4184,334.1925,172.5948,333.4421,171.8444,332.6564,171.0587,331.938,170.3404,331,169.4023" style="stroke: #00BFFF; stroke-width: 1.0;"/><path d="M131,173.4023 L131,173.6826 L140.8095,172.8499 L150.619,173.6601 L160.4286,173.9352 L170.2381,172.4512 L180.0476,173.2987 L189.8571,172.8337 L199.6667,172.891 L209.4762,173.3115 L219.2857,172.4805 L229.0952,174.1405 L238.9048,172.562 L248.7143,173.1387 L258.5238,173.9783 L268.3333,173.288 L278.1429,173.4933 L287.9524,173.3597 L297.7619,173.6404 L307.5714,173.7212 L317.381,174.1833 L327.1905,174.2971 L337,173.4023 " fill="none" style="stroke: #00BFFF; stroke-width: 1.0;"/><text fill="#000000" font-family="sans-serif" font-size="13" lengthAdjust="spacingAndGlyphs" textLength="29" x="138" y="168.6602">start</text><polygon fill="#00BFFF" points="608,198.7129,608.026,198.7779,609.9487,199.3847,612.0239,200.3727,614.0495,201.2366,615.9117,201.6921,618,202.7129,617.9904,202.6888,615.9472,203.3809,613.9525,204.1942,611.9916,205.0918,609.9144,205.6989,608,206.7129,608.1305,206.8434,608.6514,205.7643,609.5534,205.0663,610.5018,204.4147,611.1798,203.4927,612,202.7129,612.0161,202.729,611.1925,201.9054,610.4421,201.155,609.6564,200.3693,608.938,199.6509,608,198.7129" style="stroke: #00BFFF; stroke-width: 1.0;"/><path d="M353,202.7129 L353,202.9931 L363.0385,202.1605 L373.0769,202.9706 L383.1154,203.2458 L393.1538,201.7617 L403.1923,202.6093 L413.2308,202.1442 L423.2692,202.2016 L433.3077,202.622 L443.3462,201.7911 L453.3846,203.4511 L463.4231,201.8725 L473.4615,202.4492 L483.5,203.2888 L493.5385,202.5985 L503.5769,202.8039 L513.6154,202.6703 L523.6538,202.9509 L533.6923,203.0317 L543.7308,203.4938 L553.7692,203.6076 L563.8077,203.6186 L573.8462,203.0524 L583.8846,203.331 L593.9231,203.6492 L603.9615,201.7513 L614,202.7129 " fill="none" style="stroke: #00BFFF; stroke-width: 1.0;"/><text fill="#000000" font-family="sans-serif" font-size="13" lengthAdjust="spacingAndGlyphs" textLength="113" x="360" y="197.9707">&lt;&lt;constructor&gt;&gt;</text><polygon fill="#1E90FF" filter="url(#fz26ku8s4a0ms)" points="620,181.4023,620,181.6125,629.8333,180.988,639.6667,181.5956,649.5,181.802,659.3333,180.6889,669.1667,181.3246,679,181.4023,678.8578,181.4023,678.8722,188.3494,678.9773,195.2965,678.7695,202.2436,679.1845,209.1906,679,216.1377,679,215.5074,669.1667,215.9399,659.3333,216.5696,649.5,216.0519,639.6667,216.2059,629.8333,216.1057,620,216.1377,620.0595,216.1377,620.0797,209.1906,620.1952,202.2436,620.2237,195.2965,620.2264,188.3494,620,181.4023" style="stroke: #00BFFF; stroke-width: 1.5;"/><text fill="#A9DCDF" font-family="Impact" font-size="17" lengthAdjust="spacingAndGlyphs" textLength="45" x="627" y="205.5518">Queue</text><polygon fill="#00BFFF" points="681,248.4482,681.026,248.5133,682.9487,249.12,685.0239,250.1081,687.0495,250.9719,688.9117,251.4275,691,252.4482,690.9904,252.4242,688.9472,253.1162,686.9525,253.9296,684.9916,254.8271,682.9144,255.4343,681,256.4482,681.1305,256.5787,681.6514,255.4997,682.5534,254.8016,683.5018,254.1501,684.1798,253.228,685,252.4482,685.0161,252.4643,684.1925,251.6407,683.4421,250.8903,682.6564,250.1046,681.938,249.3863,681,248.4482" style="stroke: #00BFFF; stroke-width: 1.0;"/><path d="M353,252.4482 L353,252.7285 L363.1212,251.8958 L373.2424,252.706 L383.3636,252.9811 L393.4848,251.497 L403.6061,252.3446 L413.7273,251.8796 L423.8485,251.9369 L433.9697,252.3574 L444.0909,251.5264 L454.2121,253.1864 L464.3333,251.6079 L474.4545,252.1846 L484.5758,253.0242 L494.697,252.3339 L504.8182,252.5392 L514.9394,252.4056 L525.0606,252.6863 L535.1818,252.7671 L545.303,253.2292 L555.4242,253.343 L565.5455,253.3539 L575.6667,252.7877 L585.7879,253.0664 L595.9091,253.3846 L606.0303,251.4867 L616.1515,253.3529 L626.2727,252.0529 L636.3939,253.16 L646.5152,251.7882 L656.6364,252.3569 L666.7576,253.437 L676.8788,252.3833 L687,252.4482 " fill="none" style="stroke: #00BFFF; stroke-width: 1.0;"/><text fill="#000000" font-family="sans-serif" font-size="13" lengthAdjust="spacingAndGlyphs" textLength="113" x="360" y="247.7061">&lt;&lt;constructor&gt;&gt;</text><polygon fill="#1E90FF" filter="url(#fz26ku8s4a0ms)" points="693,231.1377,693,231.3479,703.1429,230.7234,713.2857,231.331,723.4286,231.5374,733.5714,230.4243,743.7143,231.06,753.8571,230.7112,764,231.1377,763.8722,231.1377,763.9773,238.0848,763.7695,245.0318,764.1845,251.9789,763.7899,258.926,764,265.873,764,265.6753,753.8571,266.305,743.7143,265.7873,733.5714,265.9413,723.4286,265.8411,713.2857,266.0516,703.1429,266.1122,693,265.873,693.1952,265.873,693.2237,258.926,693.2264,251.9789,693.0849,245.0318,693.1545,238.0848,693,231.1377" style="stroke: #00BFFF; stroke-width: 1.5;"/><text fill="#A9DCDF" font-family="Impact" font-size="17" lengthAdjust="spacingAndGlyphs" textLength="57" x="700" y="255.2871">Process</text><polygon fill="#00BFFF" points="713.5,298.1836,713.526,298.2486,715.4487,298.8554,717.5239,299.8434,719.5495,300.7073,721.4117,301.1628,723.5,302.1836,723.4904,302.1595,721.4472,302.8516,719.4525,303.6649,717.4916,304.5625,715.4144,305.1696,713.5,306.1836,713.6305,306.3141,714.1514,305.235,715.0534,304.537,716.0018,303.8854,716.6798,302.9634,717.5,302.1836,717.5161,302.1997,716.6925,301.3761,715.9421,300.6257,715.1564,299.84,714.438,299.1216,713.5,298.1836" style="stroke: #00BFFF; stroke-width: 1.0;"/><path d="M353,302.1836 L353,302.4638 L362.9054,301.6312 L372.8108,302.4413 L382.7162,302.7165 L392.6216,301.2324 L402.527,302.08 L412.4324,301.6149 L422.3378,301.6723 L432.2432,302.0927 L442.1486,301.2618 L452.0541,302.9218 L461.9595,301.3432 L471.8649,301.9199 L481.7703,302.7595 L491.6757,302.0692 L501.5811,302.2746 L511.4865,302.141 L521.3919,302.4216 L531.2973,302.5024 L541.2027,302.9645 L551.1081,303.0783 L561.0135,303.0893 L570.9189,302.5231 L580.8243,302.8017 L590.7297,303.1199 L600.6351,301.222 L610.5405,303.0883 L620.4459,301.7883 L630.3514,302.8953 L640.2568,301.5236 L650.1622,302.0923 L660.0676,303.1724 L669.973,302.1186 L679.8784,302.324 L689.7838,302.6351 L699.6892,302.7386 L709.5946,302.1784 L719.5,302.1836 " fill="none" style="stroke: #00BFFF; stroke-width: 1.0;"/><text fill="#000000" font-family="sans-serif" font-size="13" lengthAdjust="spacingAndGlyphs" textLength="29" x="360" y="297.4414">start</text><path d="M358,391.4941 L358.0347,391.5809 L359.9316,390.5232 L362.0319,389.9739 L364.066,389.2591 L365.8822,387.9998 L368,387.4941 " fill="none" style="stroke: #00BFFF; stroke-width: 1.0;"/><path d="M358,391.4941 L358.0347,391.5809 L359.9316,392.1232 L362.0319,393.1739 L364.066,394.0591 L365.8822,394.3998 L368,395.4941 " fill="none" style="stroke: #00BFFF; stroke-width: 1.0;"/><path d="M358,391.4941 L358,391.7744 L367.9054,390.9417 L377.8108,391.7519 L387.7162,392.027 L397.6216,390.5429 L407.527,391.3905 L417.4324,390.9255 L427.3378,390.9828 L437.2432,391.4033 L447.1486,390.5723 L457.0541,392.2323 L466.9595,390.6538 L476.8649,391.2305 L486.7703,392.0701 L496.6757,391.3798 L506.5811,391.5851 L516.4865,391.4515 L526.3919,391.7322 L536.2973,391.813 L546.2027,392.2751 L556.1081,392.3889 L566.0135,392.3998 L575.9189,391.8336 L585.8243,392.1123 L595.7297,392.4304 L605.6351,390.5326 L615.5405,392.3988 L625.4459,391.0988 L635.3514,392.2059 L645.2568,390.8341 L655.1622,391.4028 L665.0676,392.4829 L674.973,391.4292 L684.8784,391.6345 L694.7838,391.9456 L704.6892,392.0491 L714.5946,391.4889 L724.5,391.4941 " fill="none" style="stroke: #00BFFF; stroke-width: 1.0;"/><text fill="#000000" font-family="sans-serif" font-size="13" lengthAdjust="spacingAndGlyphs" textLength="39" x="375" y="386.752">helper</text><polygon fill="#00BFFF" points="483,416.8047,483.026,416.8697,484.9487,417.4765,487.0239,418.4645,489.0495,419.3284,490.9117,419.7839,493,420.8047,492.9904,420.7806,490.9472,421.4727,488.9525,422.286,486.9916,423.1836,484.9144,423.7907,483,424.8047,483.1305,424.9352,483.6514,423.8561,484.5534,423.1581,485.5018,422.5065,486.1798,421.5845,487,420.8047,487.0161,420.8208,486.1925,419.9972,485.4421,419.2468,484.6564,418.4611,483.938,417.7427,483,416.8047" style="stroke: #00BFFF; stroke-width: 1.0;"/><path d="M358,420.8047 L358,421.0849 L368.0769,420.2523 L378.1538,421.0624 L388.2308,421.3376 L398.3077,419.8535 L408.3846,420.7011 L418.4615,420.236 L428.5385,420.2934 L438.6154,420.7138 L448.6923,419.8829 L458.7692,421.5429 L468.8462,419.9643 L478.9231,420.541 L489,420.8047 " fill="none" style="stroke: #00BFFF; stroke-width: 1.0;"/><text fill="#000000" font-family="sans-serif" font-size="13" lengthAdjust="spacingAndGlyphs" textLength="113" x="365" y="416.0625">&lt;&lt;constructor&gt;&gt;</text><polygon fill="#1E90FF" filter="url(#fz26ku8s4a0ms)" points="495,399.4941,495,399.7043,505.0909,399.0798,515.1818,399.6874,525.2727,399.8938,535.3636,398.7807,545.4545,399.4164,555.5455,399.0676,565.6364,399.1106,575.7273,399.426,585.8182,398.8028,595.9091,400.0478,606,399.4941,605.7899,399.4941,605.9341,406.4412,606.144,413.3883,605.9714,420.3354,606.0227,427.2824,606,434.2295,606,434.1975,595.9091,434.408,585.8182,434.4686,575.7273,434.8152,565.6364,434.9005,555.5455,434.9087,545.4545,434.4841,535.3636,434.6931,525.2727,434.9317,515.1818,433.5083,505.0909,434.908,495,434.2295,494.9012,434.2295,495.1779,427.2824,494.835,420.3354,494.9772,413.3883,495.2472,406.4412,495,399.4941" style="stroke: #00BFFF; stroke-width: 1.5;"/><text fill="#A9DCDF" font-family="Impact" font-size="17" lengthAdjust="spacingAndGlyphs" textLength="97" x="502" y="423.6436">SchedulerJob</text><polygon fill="#00BFFF" points="540.5,466.54,540.526,466.6051,542.4487,467.2118,544.5239,468.1999,546.5495,469.0637,548.4117,469.5192,550.5,470.54,550.4904,470.516,548.4472,471.208,546.4525,472.0213,544.4916,472.9189,542.4144,473.5261,540.5,474.54,540.6305,474.6705,541.1514,473.5915,542.0534,472.8934,543.0018,472.2418,543.6798,471.3198,544.5,470.54,544.5161,470.5561,543.6925,469.7325,542.9421,468.9821,542.1564,468.1964,541.438,467.4781,540.5,466.54" style="stroke: #00BFFF; stroke-width: 1.0;"/><path d="M358,470.54 L358,470.8203 L367.9211,469.9876 L377.8421,470.7978 L387.7632,471.0729 L397.6842,469.5888 L407.6053,470.4364 L417.5263,469.9714 L427.4474,470.0287 L437.3684,470.4492 L447.2895,469.6182 L457.2105,471.2782 L467.1316,469.6997 L477.0526,470.2764 L486.9737,471.116 L496.8947,470.4257 L506.8158,470.631 L516.7368,470.4974 L526.6579,470.7781 L536.5789,470.8589 L546.5,470.54 " fill="none" style="stroke: #00BFFF; stroke-width: 1.0;"/><text fill="#000000" font-family="sans-serif" font-size="13" lengthAdjust="spacingAndGlyphs" textLength="76" x="365" y="465.7979">process_file</text><polygon fill="#00BFFF" points="369,495.8506,369.026,495.9156,366.9487,496.5224,365.0239,497.5104,363.0495,498.3743,360.9117,498.8298,359,499.8506,358.9904,499.8265,360.9472,500.5186,362.9525,501.3319,364.9916,502.2295,366.9144,502.8366,369,503.8506,369.1305,503.9811,368.0514,502.902,367.3534,502.204,366.7018,501.5524,365.7798,500.6304,365,499.8506,365.0161,499.8667,365.7925,499.0431,366.6421,498.2927,367.4564,497.507,368.338,496.7886,369,495.8506" style="stroke: #00BFFF; stroke-width: 1.0;"/><path d="M363,499.8506 L363,500.1308 L372.9211,499.2982 L382.8421,500.1083 L392.7632,500.3835 L402.6842,498.8994 L412.6053,499.747 L422.5263,499.2819 L432.4474,499.3393 L442.3684,499.7597 L452.2895,498.9288 L462.2105,500.5888 L472.1316,499.0102 L482.0526,499.5869 L491.9737,500.4265 L501.8947,499.7362 L511.8158,499.9416 L521.7368,499.808 L531.6579,500.0886 L541.5789,500.1694 L551.5,499.8506 " fill="none" style="stroke: #00BFFF; stroke-width: 1.0; stroke-dasharray: 2.0,2.0;"/><text fill="#000000" font-family="sans-serif" font-size="13" lengthAdjust="spacingAndGlyphs" textLength="36" x="375" y="495.1084">result</text><polygon fill="#00BFFF" points="634.5,525.1611,634.526,525.2262,636.4487,525.8329,638.5239,526.821,640.5495,527.6848,642.4117,528.1403,644.5,529.1611,644.4904,529.1371,642.4472,529.8291,640.4525,530.6424,638.4916,531.54,636.4144,532.1472,634.5,533.1611,634.6305,533.2916,635.1514,532.2126,636.0534,531.5145,637.0018,530.8629,637.6798,529.9409,638.5,529.1611,638.5161,529.1772,637.6925,528.3536,636.9421,527.6032,636.1564,526.8175,635.438,526.0992,634.5,525.1611" style="stroke: #00BFFF; stroke-width: 1.0;"/><path d="M353,529.1611 L353,529.4414 L362.9138,528.6087 L372.8276,529.4188 L382.7414,529.694 L392.6552,528.2099 L402.569,529.0575 L412.4828,528.5925 L422.3966,528.6498 L432.3103,529.0703 L442.2241,528.2393 L452.1379,529.8993 L462.0517,528.3208 L471.9655,528.8974 L481.8793,529.7371 L491.7931,529.0468 L501.7069,529.2521 L511.6207,529.1185 L521.5345,529.3992 L531.4483,529.48 L541.3621,529.9421 L551.2759,530.0559 L561.1897,530.0668 L571.1034,529.5006 L581.0172,529.7792 L590.931,530.0974 L600.8448,528.1996 L610.7586,530.0658 L620.6724,528.7658 L630.5862,529.8729 L640.5,529.1611 " fill="none" style="stroke: #00BFFF; stroke-width: 1.0;"/><text fill="#000000" font-family="sans-serif" font-size="13" lengthAdjust="spacingAndGlyphs" textLength="65" x="360" y="524.4189">put(result)</text><polygon fill="#00BFFF" points="331,614.4717,331.026,614.5367,332.9487,615.1435,335.0239,616.1315,337.0495,616.9954,338.9117,617.4509,341,618.4717,340.9904,618.4476,338.9472,619.1397,336.9525,619.953,334.9916,620.8506,332.9144,621.4577,331,622.4717,331.1305,622.6022,331.6514,621.5231,332.5534,620.8251,333.5018,620.1735,334.1798,619.2515,335,618.4717,335.0161,618.4878,334.1925,617.6641,333.4421,616.9138,332.6564,616.128,331.938,615.4097,331,614.4717" style="stroke: #00BFFF; stroke-width: 1.0;"/><path d="M131,618.4717 L131,618.7519 L140.8095,617.9193 L150.619,618.7294 L160.4286,619.0046 L170.2381,617.5205 L180.0476,618.3681 L189.8571,617.903 L199.6667,617.9603 L209.4762,618.3808 L219.2857,617.5499 L229.0952,619.2099 L238.9048,617.6313 L248.7143,618.208 L258.5238,619.0476 L268.3333,618.3573 L278.1429,618.5627 L287.9524,618.4291 L297.7619,618.7097 L307.5714,618.7905 L317.381,619.2526 L327.1905,619.3664 L337,618.4717 " fill="none" style="stroke: #00BFFF; stroke-width: 1.0;"/><text fill="#000000" font-family="sans-serif" font-size="13" lengthAdjust="spacingAndGlyphs" textLength="31" x="138" y="613.7295">done</text><polygon fill="#00BFFF" points="634.5,643.7822,634.526,643.8473,636.4487,644.454,638.5239,645.442,640.5495,646.3059,642.4117,646.7614,644.5,647.7822,644.4904,647.7582,642.4472,648.4502,640.4525,649.2635,638.4916,650.1611,636.4144,650.7683,634.5,651.7822,634.6305,651.9127,635.1514,650.8337,636.0534,650.1356,637.0018,649.484,637.6798,648.562,638.5,647.7822,638.5161,647.7983,637.6925,646.9747,636.9421,646.2243,636.1564,645.4386,635.438,644.7203,634.5,643.7822" style="stroke: #00BFFF; stroke-width: 1.0;"/><path d="M353,647.7822 L353,648.0625 L362.9138,647.2298 L372.8276,648.0399 L382.7414,648.3151 L392.6552,646.831 L402.569,647.6786 L412.4828,647.2136 L422.3966,647.2709 L432.3103,647.6914 L442.2241,646.8604 L452.1379,648.5204 L462.0517,646.9419 L471.9655,647.5185 L481.8793,648.3582 L491.7931,647.6679 L501.7069,647.8732 L511.6207,647.7396 L521.5345,648.0203 L531.4483,648.1011 L541.3621,648.5631 L551.2759,648.677 L561.1897,648.6879 L571.1034,648.1217 L581.0172,648.4003 L590.931,648.7185 L600.8448,646.8206 L610.7586,648.6869 L620.6724,647.3869 L630.5862,648.494 L640.5,647.7822 " fill="none" style="stroke: #00BFFF; stroke-width: 1.0;"/><text fill="#000000" font-family="sans-serif" font-size="13" lengthAdjust="spacingAndGlyphs" textLength="39" x="360" y="643.04">empty</text><polygon fill="#00BFFF" points="364,673.0928,364.026,673.1578,361.9487,673.7645,360.0239,674.7526,358.0495,675.6165,355.9117,676.072,354,677.0928,353.9904,677.0687,355.9472,677.7608,357.9525,678.5741,359.9916,679.4717,361.9144,680.0788,364,681.0928,364.1305,681.2233,363.0514,680.1442,362.3534,679.4462,361.7018,678.7946,360.7798,677.8726,360,677.0928,360.0161,677.1089,360.7925,676.2852,361.6421,675.5349,362.4564,674.7491,363.338,674.0308,364,673.0928" style="stroke: #00BFFF; stroke-width: 1.0;"/><path d="M358,677.0928 L358,677.373 L367.9138,676.5403 L377.8276,677.3505 L387.7414,677.6257 L397.6552,676.1416 L407.569,676.9892 L417.4828,676.5241 L427.3966,676.5814 L437.3103,677.0019 L447.2241,676.1709 L457.1379,677.831 L467.0517,676.2524 L476.9655,676.8291 L486.8793,677.6687 L496.7931,676.9784 L506.7069,677.1838 L516.6207,677.0502 L526.5345,677.3308 L536.4483,677.4116 L546.3621,677.8737 L556.2759,677.9875 L566.1897,677.9984 L576.1034,677.4323 L586.0172,677.7109 L595.931,678.0291 L605.8448,676.1312 L615.7586,677.9975 L625.6724,676.6974 L635.5862,677.8045 L645.5,677.0928 " fill="none" style="stroke: #00BFFF; stroke-width: 1.0; stroke-dasharray: 2.0,2.0;"/><text fill="#000000" font-family="sans-serif" font-size="13" lengthAdjust="spacingAndGlyphs" textLength="39" x="370" y="672.3506">empty</text><path d="M253,692.0928 L253,692.6533 L263.3333,690.9879 L273.6667,692.6082 L284,693.1586 L294.3333,690.1904 L304.6667,691.8855 L315,692.0928 L314.6209,692.0928 L314.6591,693.4928 L314.9394,694.8928 L314.3854,696.2928 L315.4921,697.6928 L315,699.0928 L314.6038,698.6966 L312.8757,700.9685 L311.2715,703.3643 L308.9461,705.0389 L307.0429,707.1357 L305,709.0928 L305,709.0076 L294.6,709.5688 L284.2,709.7305 L273.8,710.6546 L263.4,710.8823 L253,709.0928 L253.6038,709.0928 L253.2263,705.6928 L253.4121,702.2928 L253.6242,698.8928 L252.3589,695.4928 L253,692.0928 " fill="#EEEEEE" style="stroke: #000000; stroke-width: 1.0;"/><polygon fill="none" points="253,692.0928,253,692.303,263,691.6785,273,692.2861,283,692.4925,293,691.3794,303,692.0151,313,691.6663,323,691.7093,333,692.0246,343,691.4014,353,692.6464,363,691.4625,373,691.895,383,692.5247,393,692.007,403,692.161,413,692.0608,423,692.2713,433,692.3319,443,692.6785,453,692.7638,463,692.772,473,692.3474,483,692.5564,493,692.795,503,691.3716,513,692.7713,523,691.7963,533,692.6266,543,691.5978,553,692.0243,563,692.8344,573,692.044,583,692.1981,593,692.4314,603,692.509,613,692.0889,623,692.38,633,691.5204,643,692.3772,653,692.641,663,692.5373,673,692.7058,683,691.6097,693,692.0928,692.3478,692.0928,692.3786,701.5842,692.9411,711.0757,692.8035,720.5671,693.6814,730.0586,692.8253,739.55,692.6569,749.0415,693.2283,758.533,693,768.0244,693,767.3576,683,767.5053,673,768.6734,663,768.4601,653,768.7589,643,767.7026,633,768.3436,623,768.6148,613,767.552,603,767.9286,593,768.1504,583,768.6762,573,768.0202,563,768.487,553,767.4706,543,767.3472,533,768.528,523,767.3075,513,768.5334,503,768.231,493,767.7565,483,767.6706,473,768.4832,463,767.7251,453,768.6163,443,767.4717,433,768.6418,423,768.5087,413,768.2694,403,768.0716,393,768.751,383,768.638,373,768.1937,363,768.2926,353,767.8941,343,768.7409,333,768.1793,323,768.197,313,767.4161,303,767.6192,293,768.5552,283,768.4542,273,767.9815,263,767.7022,253,768.0244,252.7811,768.0244,252.3138,758.533,253.4147,749.0415,253.7396,739.55,253.5264,730.0586,253.6949,720.5671,252.8633,711.0757,253.0872,701.5842,253,692.0928" style="stroke: #000000; stroke-width: 2.0;"/><text fill="#000000" font-family="sans-serif" font-size="13" font-weight="bold" lengthAdjust="spacingAndGlyphs" textLength="17" x="268" y="705.6611">alt</text><text fill="#000000" font-family="sans-serif" font-size="11" font-weight="bold" lengthAdjust="spacingAndGlyphs" textLength="64" x="330" y="704.7275">[not empty]</text><polygon fill="#00BFFF" points="634.5,726.7139,634.526,726.7789,636.4487,727.3856,638.5239,728.3737,640.5495,729.2376,642.4117,729.6931,644.5,730.7139,644.4904,730.6898,642.4472,731.3819,640.4525,732.1952,638.4916,733.0928,636.4144,733.6999,634.5,734.7139,634.6305,734.8444,635.1514,733.7653,636.0534,733.0673,637.0018,732.4157,637.6798,731.4936,638.5,730.7139,638.5161,730.73,637.6925,729.9063,636.9421,729.1559,636.1564,728.3702,635.438,727.6519,634.5,726.7139" style="stroke: #00BFFF; stroke-width: 1.0;"/><path d="M353,730.7139 L353,730.9941 L362.9138,730.1614 L372.8276,730.9716 L382.7414,731.2468 L392.6552,729.7627 L402.569,730.6102 L412.4828,730.1452 L422.3966,730.2025 L432.3103,730.623 L442.2241,729.792 L452.1379,731.4521 L462.0517,729.8735 L471.9655,730.4502 L481.8793,731.2898 L491.7931,730.5995 L501.7069,730.8049 L511.6207,730.6713 L521.5345,730.9519 L531.4483,731.0327 L541.3621,731.4948 L551.2759,731.6086 L561.1897,731.6195 L571.1034,731.0534 L581.0172,731.332 L590.931,731.6502 L600.8448,729.7523 L610.7586,731.6185 L620.6724,730.3185 L630.5862,731.4256 L640.5,730.7139 " fill="none" style="stroke: #00BFFF; stroke-width: 1.0;"/><text fill="#000000" font-family="sans-serif" font-size="13" lengthAdjust="spacingAndGlyphs" textLength="20" x="360" y="725.9717">get</text><polygon fill="#00BFFF" points="364,756.0244,364.026,756.0895,361.9487,756.6962,360.0239,757.6842,358.0495,758.5481,355.9117,759.0036,354,760.0244,353.9904,760.0004,355.9472,760.6924,357.9525,761.5057,359.9916,762.4033,361.9144,763.0104,364,764.0244,364.1305,764.1549,363.0514,763.0759,362.3534,762.3778,361.7018,761.7262,360.7798,760.8042,360,760.0244,360.0161,760.0405,360.7925,759.2169,361.6421,758.4665,362.4564,757.6808,363.338,756.9625,364,756.0244" style="stroke: #00BFFF; stroke-width: 1.0;"/><path d="M358,760.0244 L358,760.3047 L367.9138,759.472 L377.8276,760.2821 L387.7414,760.5573 L397.6552,759.0732 L407.569,759.9208 L417.4828,759.4558 L427.3966,759.5131 L437.3103,759.9335 L447.2241,759.1026 L457.1379,760.7626 L467.0517,759.184 L476.9655,759.7607 L486.8793,760.6003 L496.7931,759.91 L506.7069,760.1154 L516.6207,759.9818 L526.5345,760.2624 L536.4483,760.3433 L546.3621,760.8053 L556.2759,760.9192 L566.1897,760.9301 L576.1034,760.3639 L586.0172,760.6425 L595.931,760.9607 L605.8448,759.0628 L615.7586,760.9291 L625.6724,759.6291 L635.5862,760.7362 L645.5,760.0244 " fill="none" style="stroke: #00BFFF; stroke-width: 1.0; stroke-dasharray: 2.0,2.0;"/><text fill="#000000" font-family="sans-serif" font-size="13" lengthAdjust="spacingAndGlyphs" textLength="36" x="370" y="755.2822">result</text><polygon fill="#00BFFF" points="142,792.335,142.026,792.4,139.9487,793.0067,138.0239,793.9948,136.0495,794.8587,133.9117,795.3142,132,796.335,131.9904,796.3109,133.9472,797.003,135.9525,797.8163,137.9916,798.7139,139.9144,799.321,142,800.335,142.1305,800.4655,141.0514,799.3864,140.3534,798.6883,139.7018,798.0368,138.7798,797.1147,138,796.335,138.0161,796.351,138.7925,795.5274,139.6421,794.777,140.4564,793.9913,141.338,793.273,142,792.335" style="stroke: #00BFFF; stroke-width: 1.0;"/><path d="M136,796.335 L136,796.6152 L145.8095,795.7825 L155.619,796.5927 L165.4286,796.8679 L175.2381,795.3838 L185.0476,796.2313 L194.8571,795.7663 L204.6667,795.8236 L214.4762,796.2441 L224.2857,795.4131 L234.0952,797.0732 L243.9048,795.4946 L253.7143,796.0713 L263.5238,796.9109 L273.3333,796.2206 L283.1429,796.4259 L292.9524,796.2924 L302.7619,796.573 L312.5714,796.6538 L322.381,797.1159 L332.1905,797.2297 L342,796.335 " fill="none" style="stroke: #00BFFF; stroke-width: 1.0; stroke-dasharray: 2.0,2.0;"/><text fill="#000000" font-family="sans-serif" font-size="13" lengthAdjust="spacingAndGlyphs" textLength="31" x="148" y="791.5928">done</text><path d="M13,811.335 L13,811.8954 L23.3333,810.2301 L33.6667,811.8504 L44,812.4008 L54.3333,809.4326 L64.6667,811.1277 L75,811.335 L74.6209,811.335 L74.6591,812.735 L74.9394,814.135 L74.3854,815.535 L75.4921,816.935 L75,818.335 L74.6038,817.9388 L72.8757,820.2107 L71.2715,822.6065 L68.9461,824.281 L67.0429,826.3779 L65,828.335 L65,828.2498 L54.6,828.811 L44.2,828.9727 L33.8,829.8968 L23.4,830.1244 L13,828.335 L13.6038,828.335 L13.2263,824.935 L13.4121,821.535 L13.6242,818.135 L12.3589,814.735 L13,811.335 " fill="#EEEEEE" style="stroke: #000000; stroke-width: 1.0;"/><polygon fill="none" points="13,811.335,13,811.5451,23,810.9206,33,811.5282,43,811.7346,53,810.6216,63,811.2572,73,810.9085,83,810.9515,93,811.2668,103,810.6436,113,811.8886,123,810.7047,133,811.1372,143,811.7669,153,811.2492,163,811.4032,173,811.303,183,811.5135,193,811.5741,203,811.9207,213,812.006,223,812.0142,233,811.5896,243,811.7985,253,812.0372,263,810.6138,273,812.0135,283,811.0385,293,811.8688,303,810.8399,313,811.2665,323,812.0766,333,811.2862,343,811.4403,353,811.6736,363,811.7512,373,811.3311,383,811.6222,393,810.7625,403,811.6193,413,811.8832,423,811.7795,433,811.948,443,811.335,442.5169,811.335,442.3478,820.8264,442.3786,830.3179,442.9411,839.8093,442.8035,849.3008,443.6814,858.7922,442.8253,868.2837,442.6569,877.7751,443,887.2666,443,887.4949,433,886.5998,423,886.7475,413,887.9156,403,887.7023,393,888.0011,383,886.9448,373,887.5858,363,887.857,353,886.7942,343,887.1707,333,887.3926,323,887.9184,313,887.2624,303,887.7292,293,886.7128,283,886.5893,273,887.7702,263,886.5497,253,887.7756,243,887.4732,233,886.9987,223,886.9128,213,887.7254,203,886.9673,193,887.8585,183,886.7139,173,887.884,163,887.7509,153,887.5116,143,887.3138,133,887.9932,123,887.8802,113,887.4359,103,887.5348,93,887.1363,83,887.9831,73,887.4215,63,887.4392,53,886.6583,43,886.8614,33,887.7973,23,887.6964,13,887.2666,12.9571,887.2666,12.6778,877.7751,12.7811,868.2837,12.3138,858.7922,13.4147,849.3008,13.7396,839.8093,13.5264,830.3179,13.6949,820.8264,13,811.335" style="stroke: #000000; stroke-width: 2.0;"/><text fill="#000000" font-family="sans-serif" font-size="13" font-weight="bold" lengthAdjust="spacingAndGlyphs" textLength="17" x="28" y="824.9033">alt</text><text fill="#000000" font-family="sans-serif" font-size="11" font-weight="bold" lengthAdjust="spacingAndGlyphs" textLength="35" x="90" y="823.9697">[done]</text><polygon fill="#00BFFF" points="331,845.9561,331.026,846.0211,332.9487,846.6278,335.0239,847.6159,337.0495,848.4798,338.9117,848.9353,341,849.9561,340.9904,849.932,338.9472,850.6241,336.9525,851.4374,334.9916,852.335,332.9144,852.9421,331,853.9561,331.1305,854.0865,331.6514,853.0075,332.5534,852.3094,333.5018,851.6579,334.1798,850.7358,335,849.9561,335.0161,849.9721,334.1925,849.1485,333.4421,848.3981,332.6564,847.6124,331.938,846.8941,331,845.9561" style="stroke: #00BFFF; stroke-width: 1.0;"/><path d="M131,849.9561 L131,850.2363 L140.8095,849.4036 L150.619,850.2138 L160.4286,850.489 L170.2381,849.0049 L180.0476,849.8524 L189.8571,849.3874 L199.6667,849.4447 L209.4762,849.8652 L219.2857,849.0342 L229.0952,850.6942 L238.9048,849.1157 L248.7143,849.6924 L258.5238,850.532 L268.3333,849.8417 L278.1429,850.047 L287.9524,849.9135 L297.7619,850.1941 L307.5714,850.2749 L317.381,850.737 L327.1905,850.8508 L337,849.9561 " fill="none" style="stroke: #00BFFF; stroke-width: 1.0;"/><text fill="#000000" font-family="sans-serif" font-size="13" lengthAdjust="spacingAndGlyphs" textLength="36" x="138" y="845.2139">result</text><polygon fill="#00BFFF" points="142,875.2666,142.026,875.3317,139.9487,875.9384,138.0239,876.9264,136.0495,877.7903,133.9117,878.2458,132,879.2666,131.9904,879.2425,133.9472,879.9346,135.9525,880.7479,137.9916,881.6455,139.9144,882.2526,142,883.2666,142.1305,883.3971,141.0514,882.318,140.3534,881.62,139.7018,880.9684,138.7798,880.0464,138,879.2666,138.0161,879.2827,138.7925,878.4591,139.6421,877.7087,140.4564,876.923,141.338,876.2046,142,875.2666" style="stroke: #00BFFF; stroke-width: 1.0;"/><path d="M136,879.2666 L136,879.5468 L145.8095,878.7142 L155.619,879.5243 L165.4286,879.7995 L175.2381,878.3154 L185.0476,879.163 L194.8571,878.6979 L204.6667,878.7553 L214.4762,879.1757 L224.2857,878.3448 L234.0952,880.0048 L243.9048,878.4262 L253.7143,879.0029 L263.5238,879.8425 L273.3333,879.1522 L283.1429,879.3576 L292.9524,879.224 L302.7619,879.5046 L312.5714,879.5854 L322.381,880.0475 L332.1905,880.1613 L342,879.2666 " fill="none" style="stroke: #00BFFF; stroke-width: 1.0; stroke-dasharray: 2.0,2.0;"/><text fill="#000000" font-family="sans-serif" font-size="13" lengthAdjust="spacingAndGlyphs" textLength="79" x="148" y="874.5244">simple_dags</text><polygon fill="#00BFFF" points="14,911.5771,14.026,911.6422,11.9487,912.2489,10.0239,913.237,8.0495,914.1008,5.9117,914.5564,4,915.5771,3.9904,915.5531,5.9472,916.2452,7.9525,917.0585,9.9916,917.9561,11.9144,918.5632,14,919.5771,14.1305,919.7076,13.0514,918.6286,12.3534,917.9305,11.7018,917.279,10.7798,916.3569,10,915.5771,10.0161,915.5932,10.7925,914.7696,11.6421,914.0192,12.4564,913.2335,13.338,912.5152,14,911.5771" style="stroke: #00BFFF; stroke-width: 1.0;"/><path d="M8,915.5771 L8,915.8574 L17.75,915.0247 L27.5,915.8349 L37.25,916.1101 L47,914.626 L56.75,915.4735 L66.5,915.0085 L76.25,915.0658 L86,915.4863 L95.75,914.6553 L105.5,916.3153 L115.25,914.7368 L125,915.5771 " fill="none" style="stroke: #00BFFF; stroke-width: 1.0; stroke-dasharray: 2.0,2.0;"/><text fill="#000000" font-family="sans-serif" font-size="13" lengthAdjust="spacingAndGlyphs" textLength="79" x="20" y="910.835">simple_dags</text><!--
@startuml
skinparam backgroundColor #EEEBDC
skinparam handwritten true

skinparam sequence {
	ArrowColor DeepSkyBlue
	ActorBorderColor DeepSkyBlue
	LifeLineBorderColor blue
	LifeLineBackgroundColor #A9DCDF

	ParticipantBorderColor DeepSkyBlue
	ParticipantBackgroundColor DodgerBlue
	ParticipantFontName Impact
	ParticipantFontSize 17
	ParticipantFontColor #A9DCDF

	ActorBackgroundColor aqua
	ActorFontColor DeepSkyBlue
	ActorFontSize 17
	ActorFontName Aapex
}

participant "DagFileProcessorManager" as PM order 1
participant "DagFileProcessor:List" as FP order 2
participant "SchedulerJob" as J order 3
box multiprocessing
participant "Queue" as Q order 21
participant "Process" as P order 22
end box

create FP

PM -> FP: <<constructor>>
activate FP
-> PM: heartbeat
activate PM
PM -> FP: start
create Q
FP -> Q: <<constructor>>
activate Q
create P
FP -> P: <<constructor>>
FP -> P: start
activate P
||60||
P ->> FP: helper
activate FP
create J
FP -> J: <<constructor>>
FP -> J: process_file
J - -> FP: result
FP -> Q: put(result)
deactivate P
||60||
deactivate FP
activate J
PM -> FP: done
FP -> Q: empty
Q - -> FP: empty
alt not empty
FP -> Q: get
Q - -> FP: result
end
FP - -> PM: done
alt done
PM -> FP: result
FP - -> PM: simple_dags
end
[<- - PM : simple_dags
deactivate Q
deactivate FP
deactivate PM

@enduml

PlantUML version 1.2019.06(Sat May 25 01:10:25 SGT 2019)
(GPL source distribution)
Java Runtime: OpenJDK Runtime Environment
JVM: OpenJDK 64-Bit Server VM
Java Version: 1.8.0_212-b03
Operating System: Mac OS X
OS Version: 10.14.5
Default Encoding: UTF-8
Language: en
Country: SG
--></g></svg>